$MeshFormat
4.1 0 8
$EndMeshFormat
$PhysicalNames
3
1 102 "BCout"
1 103 "BCin"
2 101 "domain0"
$EndPhysicalNames
$Entities
28 16 1 0
5 -0.5 -0.5 0 0 
6 -0.5 0.5 0 0 
7 0 0.5 0 0 
8 0 0 0 0 
9 0.5 0 0 0 
10 0.5 -0.5 0 0 
11 -0.4 0.09999999999999998 0 0 
12 -0.4 0 0 0 
13 -0.5 0.09999999999999998 0 0 
14 -0.4 0.9 0 0 
15 -0.4 1 0 0 
16 -0.5 0.9 0 0 
17 -0.1 0.9 0 0 
18 -0.1 1 0 0 
19 0 0.9 0 0 
20 0.1 0.6 0 0 
21 0.1 0.5 0 0 
22 0 0.6 0 0 
23 0.4 0.4 0 0 
24 0.4 0.5 0 0 
25 0.5 0.4 0 0 
26 0.4 0.09999999999999998 0 0 
27 0.4 0 0 0 
28 0.5 0.09999999999999998 0 0 
29 1 1.5 0 0 
30 -1 1.5 0 0 
31 1 -0.5 0 0 
32 -1 -0.5 0 0 
5 -0.5000000999999999 0.09999989999999997 -1e-07 -0.4999999 0.9000001 1e-07 1 103 2 13 -16 
6 -0.4000001 0.9999999000000001 -1e-07 -0.09999989999999997 1.0000001 1e-07 1 103 2 15 -18 
7 -1e-07 0.5999999 -1e-07 1e-07 0.9000001 1e-07 1 103 2 19 -22 
8 0.0999999 0.4999999 -1e-07 0.4000001 0.5000000999999999 1e-07 1 103 2 21 -24 
9 0.4999999 0.09999989999999997 -1e-07 0.5000000999999999 0.4000001 1e-07 1 103 2 25 -28 
10 -0.4000001 -1e-07 -1e-07 0.4000001 1e-07 1e-07 1 103 2 27 -12 
11 -0.5000000999999999 0.8999999000000001 -1e-07 -0.3999999 1.0000001 1e-07 1 103 2 16 -15 
12 -0.1000001 0.8999999000000001 -1e-07 9.999999997511999e-08 1.0000001 1e-07 1 103 2 18 -19 
13 -1.000000000028756e-07 0.4999999 -1e-07 0.1000001 0.6000000999999999 1e-07 1 103 2 22 -21 
14 0.3999999 0.3999999 -1e-07 0.5000000999999999 0.5000000999999999 1e-07 1 103 2 24 -25 
15 0.3999999 -1.000000000028756e-07 -1e-07 0.5000000999999999 0.1000001 1e-07 1 103 2 28 -27 
16 -0.5000000999999999 -1.000000000028756e-07 -1e-07 -0.3999999 0.1000001 1e-07 1 103 2 12 -13 
17 -1.0000001 1.4999999 -1e-07 1.0000001 1.5000001 1e-07 1 102 2 29 -30 
18 0.9999999000000001 -0.5000000999999998 -1e-07 1.0000001 1.5000001 1e-07 1 102 2 31 -29 
19 -1.0000001 -0.5000000999999998 -1e-07 -0.9999999000000001 1.5000001 1e-07 1 102 2 30 -32 
20 -1.0000001 -0.5000000999999999 -1e-07 1.0000001 -0.4999999 1e-07 1 102 2 32 -31 
1 -1.0000001 -0.5000000999999998 -1e-07 1.0000001 1.5000001 1e-07 1 101 16 17 19 20 18 16 5 11 6 12 7 13 8 14 9 15 10 
$EndEntities
$Nodes
33 190 1 190
0 12 0 1
1
-0.4 0 0
0 13 0 1
2
-0.5 0.09999999999999998 0
0 15 0 1
3
-0.4 1 0
0 16 0 1
4
-0.5 0.9 0
0 18 0 1
5
-0.1 1 0
0 19 0 1
6
0 0.9 0
0 21 0 1
7
0.1 0.5 0
0 22 0 1
8
0 0.6 0
0 24 0 1
9
0.4 0.5 0
0 25 0 1
10
0.5 0.4 0
0 27 0 1
11
0.4 0 0
0 28 0 1
12
0.5 0.09999999999999998 0
0 29 0 1
13
1 1.5 0
0 30 0 1
14
-1 1.5 0
0 31 0 1
15
1 -0.5 0
0 32 0 1
16
-1 -0.5 0
1 5 0 5
17
18
19
20
21
-0.5 0.2333333333333336 0
-0.5 0.3666666666666671 0
-0.5 0.5000000000000002 0
-0.5 0.6333333333333337 0
-0.5 0.7666666666666669 0
1 6 0 1
22
-0.2500000000000001 1 0
1 7 0 1
23
0 0.7500000000000001 0
1 8 0 1
24
0.2499999999999999 0.5 0
1 9 0 1
25
0.5 0.2500000000000001 0
1 10 0 5
26
27
28
29
30
0.2666666666666664 0 0
0.1333333333333329 0 0
-2.775557561562891e-16 0 0
-0.1333333333333337 0 0
-0.2666666666666669 0 0
1 11 0 1
31
-0.4707106781186549 0.9707106781186545 0
1 12 0 1
32
-0.02928932188134548 0.970710678118655 0
1 13 0 1
33
0.02928932188134532 0.5292893218813451 0
1 14 0 1
34
0.4707106781186545 0.470710678118655 0
1 15 0 1
35
0.4707106781186547 0.02928932188134517 0
1 16 0 1
36
-0.4707106781186549 0.02928932188134536 0
1 17 0 7
37
38
39
40
41
42
43
0.75 1.5 0
0.5 1.5 0
0.25 1.5 0
0 1.5 0
-0.25 1.5 0
-0.5 1.5 0
-0.75 1.5 0
1 18 0 7
44
45
46
47
48
49
50
1 -0.25 0
1 0 0
1 0.25 0
1 0.5 0
1 0.75 0
1 1 0
1 1.25 0
1 19 0 7
51
52
53
54
55
56
57
-1 1.25 0
-1 1 0
-1 0.75 0
-1 0.5 0
-1 0.25 0
-1 0 0
-1 -0.25 0
1 20 0 7
58
59
60
61
62
63
64
-0.75 -0.5 0
-0.5 -0.5 0
-0.25 -0.5 0
0 -0.5 0
0.25 -0.5 0
0.5 -0.5 0
0.75 -0.5 0
2 1 0 126
65
66
67
68
69
70
71
72
73
74
75
76
77
78
79
80
81
82
83
84
85
86
87
88
89
90
91
92
93
94
95
96
97
98
99
100
101
102
103
104
105
106
107
108
109
110
111
112
113
114
115
116
117
118
119
120
121
122
123
124
125
126
127
128
129
130
131
132
133
134
135
136
137
138
139
140
141
142
143
144
145
146
147
148
149
150
151
152
153
154
155
156
157
158
159
160
161
162
163
164
165
166
167
168
169
170
171
172
173
174
175
176
177
178
179
180
181
182
183
184
185
186
187
188
189
190
0.09648466698483366 0.8196499358743046 0
0.4607206358681915 0.5465925826289068 0
0.04632289435678817 0.9670592092269019 0
-0.460720635868192 1.046592582628907 0
-0.5384777919275183 0.976994625370005 0
-0.5465925826289069 0.03927936413180855 0
0.5465925826289066 0.4607206358681921 0
-0.0232216209541241 1.038801193123584 0
-0.4769946253700054 -0.03847779192751821 0
0.4607206358681916 -0.04659258262890686 0
0.5384777919275183 0.02300537462999452 0
0.06698319390195993 1.052714652363703 0
0.1512165899387101 1.000010837835827 0
0.5654041294793302 0.5537163282742663 0
0.5022280316177982 0.6443426776727913 0
-0.553213431038845 1.069872393043194 0
-0.5698723930431946 -0.05321343103884457 0
0.5532134310388445 -0.06987239304319481 0
0.1749999999999999 0.5980932626873919 0
0.3865354056102777 0.637557424646249 0
0.4241243762961787 0.7448567845567338 0
0.5635342131891192 0.7538824468581293 0
0.4746306369142257 0.8666879589078219 0
0.5974821992427879 0.3666957089892071 0
-0.3661882396917838 1.098386827692619 0
0.1639741571931758 1.117518404421803 0
0.5943007081318388 1.291031735972593 0
-0.3798510380807257 -0.09025137639556668 0
-0.2444088087557556 -0.123264739018679 0
-0.5902513763955665 0.8798510380807254 0
-0.6232647390186787 0.7444088087557554 0
0.3457794657246175 -0.1027066289672963 0
-0.6027066289672961 0.1542205342753823 0
0.3421762350662925 0.8393917739396752 0
-0.11814785543476 1.091852578845603 0
0.592151889645222 0.1187520931327753 0
0.6273624838014825 0.8913815945978332 0
-0.6183974584326866 0.4235073255335781 0
0.07649267446642195 -0.1183974584326866 0
0.3797280565279071 0.9894514045777125 0
0.6546150977731803 0.4823898034188445 0
-0.4817687314910307 1.157141775476716 0
-0.6559010426680173 0.02301218341726263 0
0.4769878165827373 -0.1559010426680176 0
-0.6200788526218957 1.172077485785214 0
-0.6786066660648126 -0.1197006362462661 0
0.6197006362462659 -0.1786066660648131 0
0.005256332686332302 1.155991423201642 0
0.6572153402683552 0.6269127490160824 0
0.6509685292868997 -0.01227399062455459 0
-0.5058124410758613 -0.1586181121728739 0
-0.6564850353630658 1.002565064873846 0
-0.1160080039933971 1.214631631783582 0
0.7157909504880895 0.1189759765369232 0
-0.7520786396216919 0.1517684957299136 0
0.3482315042700861 -0.2520786396216923 0
0.742084609199093 0.3759905894398585 0
-0.3651315589350539 1.241017079685038 0
0.1211602466245831 1.236603701407299 0
0.3736485807687394 1.303058041471078 0
0.800093555433159 -0.1185402625307116 0
-0.6150342651706165 -0.3134869889025476 0
-0.8131945121635182 1.113404839090347 0
-0.6375883000913984 0.5892609690423061 0
-0.08926096904230595 -0.1375883000913987 0
-0.8093830312747732 0.001730952050643997 0
0.498283655471874 -0.3093651142362744 0
-0.6982229706185517 0.2850629517188614 0
0.2149370482811384 -0.1982229706185517 0
-0.5501181341839687 1.322015082140848 0
0.7934702018723068 0.5012385042165779 0
-0.3618973259909899 -0.2235539427775346 0
-0.7233000050620807 0.8615107335859876 0
0.3042589434351894 0.7226951939722096 0
0.2343453066738113 0.8023300899822872 0
0.2348957241948073 0.9188158833558245 0
0.4845862167029272 1.143251155385757 0
0.6723547019831165 1.067392025604498 0
-0.7707253920295176 0.4912950869198487 0
0.008704913080151623 -0.2707253920295177 0
0.08832756069734422 0.675 0
-0.7950421887827337 0.6860827919400085 0
-0.1861222401446006 -0.2950681007945151 0
0.7692212309377321 -0.2924030095313735 0
-0.7888985831615637 1.309582901169402 0
-0.821795324919033 -0.304168227177871 0
0.2063182625663793 0.6969488371251901 0
0.807200868050534 0.8836442346789994 0
0.0785233765157379 0.5804765169137475 0
0.277999215808474 0.6193531855513815 0
0.6945561632560615 0.7654610519571303 0
0.1211440290794716 0.9113784316478091 0
0.5270532789511373 0.9938460060196241 0
0.3274920270112483 1.120534179038548 0
0.8254070955745428 0.6712094233114649 0
0.8091430385754179 1.275029266876238 0
-0.2243923988322618 1.308238653036049 0
-0.2399780094812094 1.159021128507149 0
-0.855166980726518 0.3317151561945957 0
0.1682848438054043 -0.3551669807265181 0
0.6557914778334926 0.2453221954340492 0
0.8134607458620265 0.2412736367771225 0
0.2523396867300308 1.033009359286298 0
0.8602885247965987 0.1243502634188711 0
-0.03175595602865657 1.329703121758752 0
0.3759747747358919 -0.3957295943980699 0
-0.8957295943980691 0.1240252252641069 0
0.1529130436245562 0.7709601729328468 0
0.3458826832389978 0.5608243948772483 0
-0.8448494324003942 0.973544508857749 0
-0.8650545074931604 0.8403530791404077 0
-0.4735445088577509 -0.3448494324003939 0
-0.3403965526719993 -0.3650830635877775 0
0.06292380893554668 0.8806501016916934 0
-0.5838654116037069 0.2925581623055645 0
0.2074418376944355 -0.08386541160370697 0
-0.3774043113199113 1.382075047555618 0
0.1664879699435083 0.8473029150977902 0
0.07911061074588829 0.7509179630277487 0
0.8577397217218137 1.095213105431947 0
0.8698031113866853 0.3737005460867118 0
0.7959319164672145 0.0193593420515924 0
0.2404607005697141 1.22663300470224 0
0.1868909593145515 1.352329411994286 0
0.631584914981572 -0.3649051171633162 0
-0.8619570044517237 -0.1344275822746988 0
$EndNodes
$Elements
17 380 1 380
1 5 1 6
1 2 17 
2 17 18 
3 18 19 
4 19 20 
5 20 21 
6 21 4 
1 6 1 2
7 3 22 
8 22 5 
1 7 1 2
9 6 23 
10 23 8 
1 8 1 2
11 7 24 
12 24 9 
1 9 1 2
13 10 25 
14 25 12 
1 10 1 6
15 11 26 
16 26 27 
17 27 28 
18 28 29 
19 29 30 
20 30 1 
1 11 1 2
21 4 31 
22 31 3 
1 12 1 2
23 5 32 
24 32 6 
1 13 1 2
25 8 33 
26 33 7 
1 14 1 2
27 9 34 
28 34 10 
1 15 1 2
29 12 35 
30 35 11 
1 16 1 2
31 1 36 
32 36 2 
1 17 1 8
33 13 37 
34 37 38 
35 38 39 
36 39 40 
37 40 41 
38 41 42 
39 42 43 
40 43 14 
1 18 1 8
41 15 44 
42 44 45 
43 45 46 
44 46 47 
45 47 48 
46 48 49 
47 49 50 
48 50 13 
1 19 1 8
49 14 51 
50 51 52 
51 52 53 
52 53 54 
53 54 55 
54 55 56 
55 56 57 
56 57 16 
1 20 1 8
57 16 58 
58 58 59 
59 59 60 
60 60 61 
61 61 62 
62 62 63 
63 63 64 
64 64 15 
2 1 2 316
65 143 146 54 
66 144 147 61 
67 9 173 24 
68 67 72 32 
69 5 99 22 
70 12 100 25 
71 34 71 66 
72 88 105 71 
73 124 141 91 
74 37 160 13 
75 89 106 68 
76 65 178 23 
77 38 124 91 
78 43 149 134 
79 97 107 70 
80 96 108 74 
81 44 148 15 
82 58 150 16 
83 51 149 14 
84 79 113 86 
85 70 73 36 
86 74 75 35 
87 68 69 31 
88 78 113 79 
89 24 83 7 
90 13 160 50 
91 15 148 64 
92 16 150 57 
93 14 149 43 
94 101 152 142 
95 132 163 119 
96 133 164 120 
97 3 89 68 
98 10 88 71 
99 111 114 82 
100 54 146 53 
101 61 147 60 
102 109 116 80 
103 110 115 81 
104 20 128 19 
105 29 129 28 
106 30 93 29 
107 21 95 20 
108 43 134 42 
109 4 94 21 
110 1 92 30 
111 90 112 76 
112 45 125 44 
113 59 126 58 
114 52 127 51 
115 102 143 132 
116 103 144 133 
117 66 173 9 
118 11 96 74 
119 2 97 70 
120 19 128 102 
121 28 129 103 
122 95 128 20 
123 93 129 29 
124 8 145 23 
125 83 153 7 
126 134 149 109 
127 161 169 41 
128 59 176 126 
129 52 174 127 
130 125 148 44 
131 126 150 58 
132 127 149 51 
133 163 171 119 
134 164 170 120 
135 39 124 38 
136 22 89 3 
137 25 88 10 
138 152 184 142 
139 98 139 138 
140 45 186 125 
141 88 121 105 
142 98 138 85 
143 91 160 37 
144 67 76 72 
145 89 122 106 
146 71 78 66 
147 97 119 107 
148 96 120 108 
149 123 188 169 
150 38 91 37 
151 156 182 140 
152 17 97 2 
153 26 96 11 
154 99 162 22 
155 77 156 140 
156 70 81 73 
157 74 82 75 
158 68 80 69 
159 100 165 25 
160 141 158 104 
161 41 169 40 
162 169 188 40 
163 83 154 151 
164 85 138 84 
165 113 155 86 
166 111 125 114 
167 109 127 116 
168 110 126 115 
169 139 151 138 
170 143 163 132 
171 144 164 133 
172 122 162 161 
173 88 165 121 
174 90 123 112 
175 87 98 85 
176 33 153 8 
177 151 154 138 
178 89 162 122 
179 48 159 47 
180 47 159 135 
181 98 140 139 
182 84 173 66 
183 112 169 117 
184 142 157 101 
185 8 153 145 
186 92 93 30 
187 94 95 21 
188 129 147 144 
189 128 146 143 
190 104 157 141 
191 104 140 98 
192 141 142 91 
193 138 154 84 
194 128 143 102 
195 129 144 103 
196 117 169 161 
197 101 155 152 
198 123 169 112 
199 136 147 93 
200 137 146 95 
201 50 184 49 
202 40 188 39 
203 23 183 65 
204 160 184 50 
205 116 174 137 
206 115 176 136 
207 130 190 110 
208 131 189 111 
209 104 167 140 
210 39 188 124 
211 7 153 33 
212 79 84 66 
213 87 104 98 
214 161 162 117 
215 132 179 102 
216 133 180 103 
217 124 158 141 
218 49 152 48 
219 127 174 116 
220 126 176 115 
221 140 182 139 
222 165 166 121 
223 54 163 143 
224 61 164 144 
225 141 157 142 
226 97 132 119 
227 96 133 120 
228 67 77 76 
229 72 112 99 
230 75 114 100 
231 78 79 66 
232 83 151 145 
233 19 102 18 
234 28 103 27 
235 79 85 84 
236 6 67 32 
237 53 175 52 
238 60 177 59 
239 34 66 9 
240 110 190 150 
241 111 189 148 
242 42 181 41 
243 92 136 93 
244 94 137 95 
245 107 130 110 
246 108 131 111 
247 112 117 99 
248 114 118 100 
249 151 172 145 
250 55 163 54 
251 62 164 61 
252 140 167 77 
253 106 134 109 
254 93 147 129 
255 95 146 128 
256 24 154 83 
257 152 159 48 
258 79 86 85 
259 86 87 85 
260 73 115 92 
261 69 116 94 
262 168 186 45 
263 63 170 62 
264 56 171 55 
265 158 167 104 
266 105 135 113 
267 121 135 105 
268 122 134 106 
269 139 172 151 
270 67 156 77 
271 46 168 45 
272 47 185 46 
273 10 71 34 
274 3 68 31 
275 32 72 5 
276 36 73 1 
277 31 69 4 
278 2 70 36 
279 35 75 12 
280 11 74 35 
281 155 159 152 
282 57 190 56 
283 64 189 63 
284 119 130 107 
285 120 131 108 
286 115 136 92 
287 116 137 94 
288 22 162 89 
289 146 175 53 
290 147 177 60 
291 74 108 82 
292 68 106 80 
293 70 107 81 
294 142 160 91 
295 71 105 78 
296 25 165 88 
297 86 101 87 
298 172 183 145 
299 90 167 158 
300 6 178 67 
301 110 150 126 
302 109 149 127 
303 111 148 125 
304 96 180 133 
305 97 179 132 
306 166 168 46 
307 82 114 75 
308 76 112 72 
309 87 157 104 
310 156 178 65 
311 81 115 73 
312 80 116 69 
313 24 173 154 
314 86 155 101 
315 52 175 174 
316 59 177 176 
317 145 153 83 
318 77 90 76 
319 135 185 47 
320 67 178 156 
321 107 110 81 
322 108 111 82 
323 106 109 80 
324 18 179 17 
325 27 180 26 
326 136 177 147 
327 137 175 146 
328 102 179 18 
329 103 180 27 
330 121 185 135 
331 105 113 78 
332 101 157 87 
333 117 162 99 
334 118 165 100 
335 17 179 97 
336 26 180 96 
337 55 171 163 
338 62 170 164 
339 154 173 84 
340 172 182 65 
341 65 182 156 
342 46 185 166 
343 135 159 113 
344 158 187 90 
345 75 100 12 
346 72 99 5 
347 113 159 155 
348 118 168 166 
349 142 184 160 
350 77 167 90 
351 148 189 64 
352 122 181 134 
353 69 94 4 
354 73 92 1 
355 150 190 57 
356 90 187 123 
357 120 170 131 
358 119 171 130 
359 63 189 131 
360 56 190 130 
361 118 166 165 
362 161 181 122 
363 49 184 152 
364 125 186 114 
365 130 171 56 
366 131 170 63 
367 65 183 172 
368 134 181 42 
369 139 182 172 
370 124 187 158 
371 118 186 168 
372 145 183 23 
373 176 177 136 
374 174 175 137 
375 166 185 121 
376 114 186 118 
377 187 188 123 
378 41 181 161 
379 124 188 187 
380 23 178 6 
$EndElements
