$MeshFormat
4.1 0 8
$EndMeshFormat
$PhysicalNames
2
1 2 "InnerSquareEdges"
2 1 "Outer_Square"
$EndPhysicalNames
$Entities
100 100 1 0
1 0.3 0.5 0 0 
2 0.2994080185284815 0.518837155858794 0 0 
3 0.2976344103943434 0.5375999700692913 0 0 
4 0.2946861752186066 0.5562143943757174 0 0 
5 0.2905749483385893 0.5746069661494564 0 0 
6 0.285316954888546 0.5927050983124842 0 0 
7 0.2789329457664754 0.6104373658054034 0 0 
8 0.2714481157398059 0.6277337874695218 0 0 
9 0.262892004013159 0.6445261022305147 0 0 
10 0.2532983776506045 0.660748038493699 0 0 
11 0.2427050983124842 0.6763355756877419 0 0 
12 0.2311539728327368 0.6912271969246069 0 0 
13 0.2186905882264235 0.7053641317786066 0 0 
14 0.2053641317786066 0.7186905882264234 0 0 
15 0.1912271969246069 0.7311539728327368 0 0 
16 0.176335575687742 0.7427050983124842 0 0 
17 0.160748038493699 0.7532983776506046 0 0 
18 0.1445261022305145 0.762892004013159 0 0 
19 0.1277337874695218 0.7714481157398059 0 0 
20 0.1104373658054034 0.7789329457664753 0 0 
21 0.09270509831248423 0.785316954888546 0 0 
22 0.07460696614945642 0.7905749483385893 0 0 
23 0.05621439437571742 0.7946861752186065 0 0 
24 0.03759997006929134 0.7976344103943434 0 0 
25 0.01883715585879406 0.7994080185284815 0 0 
26 1.83697019872103e-17 0.8 0 0 
27 -0.01883715585879402 0.7994080185284815 0 0 
28 -0.03759997006929124 0.7976344103943434 0 0 
29 -0.05621439437571738 0.7946861752186066 0 0 
30 -0.07460696614945646 0.7905749483385893 0 0 
31 -0.09270509831248414 0.7853169548885461 0 0 
32 -0.1104373658054033 0.7789329457664754 0 0 
33 -0.1277337874695218 0.7714481157398059 0 0 
34 -0.1445261022305146 0.762892004013159 0 0 
35 -0.1607480384936991 0.7532983776506045 0 0 
36 -0.1763355756877419 0.7427050983124842 0 0 
37 -0.1912271969246069 0.7311539728327368 0 0 
38 -0.2053641317786066 0.7186905882264234 0 0 
39 -0.2186905882264234 0.7053641317786067 0 0 
40 -0.2311539728327367 0.691227196924607 0 0 
41 -0.2427050983124842 0.6763355756877419 0 0 
42 -0.2532983776506044 0.6607480384936991 0 0 
43 -0.262892004013159 0.6445261022305145 0 0 
44 -0.2714481157398058 0.6277337874695219 0 0 
45 -0.2789329457664754 0.6104373658054034 0 0 
46 -0.285316954888546 0.5927050983124842 0 0 
47 -0.2905749483385893 0.5746069661494566 0 0 
48 -0.2946861752186066 0.5562143943757174 0 0 
49 -0.2976344103943433 0.5375999700692914 0 0 
50 -0.2994080185284815 0.5188371558587941 0 0 
51 -0.3 0.5 0 0 
52 -0.2994080185284815 0.481162844141206 0 0 
53 -0.2976344103943434 0.4624000299307087 0 0 
54 -0.2946861752186066 0.4437856056242826 0 0 
55 -0.2905749483385893 0.4253930338505436 0 0 
56 -0.2853169548885461 0.4072949016875158 0 0 
57 -0.2789329457664754 0.3895626341945966 0 0 
58 -0.2714481157398059 0.3722662125304783 0 0 
59 -0.262892004013159 0.3554738977694854 0 0 
60 -0.2532983776506045 0.3392519615063011 0 0 
61 -0.2427050983124843 0.3236644243122582 0 0 
62 -0.2311539728327368 0.3087728030753931 0 0 
63 -0.2186905882264235 0.2946358682213935 0 0 
64 -0.2053641317786066 0.2813094117735765 0 0 
65 -0.1912271969246069 0.2688460271672632 0 0 
66 -0.176335575687742 0.2572949016875158 0 0 
67 -0.1607480384936989 0.2467016223493954 0 0 
68 -0.1445261022305146 0.237107995986841 0 0 
69 -0.1277337874695216 0.2285518842601941 0 0 
70 -0.1104373658054033 0.2210670542335246 0 0 
71 -0.09270509831248426 0.214683045111454 0 0 
72 -0.07460696614945633 0.2094250516614107 0 0 
73 -0.05621439437571739 0.2053138247813934 0 0 
74 -0.03759997006929137 0.2023655896056567 0 0 
75 -0.01883715585879396 0.2005919814715185 0 0 
76 -5.510910596163089e-17 0.2 0 0 
77 0.01883715585879385 0.2005919814715185 0 0 
78 0.03759997006929127 0.2023655896056566 0 0 
79 0.05621439437571728 0.2053138247813934 0 0 
80 0.07460696614945647 0.2094250516614107 0 0 
81 0.09270509831248416 0.2146830451114539 0 0 
82 0.1104373658054032 0.2210670542335245 0 0 
83 0.1277337874695215 0.228551884260194 0 0 
84 0.1445261022305147 0.237107995986841 0 0 
85 0.160748038493699 0.2467016223493955 0 0 
86 0.1763355756877419 0.2572949016875157 0 0 
87 0.1912271969246068 0.2688460271672631 0 0 
88 0.2053641317786064 0.2813094117735764 0 0 
89 0.2186905882264234 0.2946358682213933 0 0 
90 0.2311539728327368 0.3087728030753931 0 0 
91 0.2427050983124842 0.323664424312258 0 0 
92 0.2532983776506044 0.3392519615063009 0 0 
93 0.2628920040131589 0.3554738977694852 0 0 
94 0.2714481157398058 0.3722662125304781 0 0 
95 0.2789329457664754 0.3895626341945966 0 0 
96 0.285316954888546 0.4072949016875157 0 0 
97 0.2905749483385893 0.4253930338505434 0 0 
98 0.2946861752186066 0.4437856056242826 0 0 
99 0.2976344103943433 0.4624000299307086 0 0 
100 0.2994080185284815 0.481162844141206 0 0 
1 0.2994079185284815 0.4999999 -1e-07 0.3000001 0.5188372558587939 1e-07 1 2 2 1 -2 
2 0.2976343103943433 0.518837055858794 -1e-07 0.2994081185284815 0.5376000700692912 1e-07 1 2 2 2 -3 
3 0.2946860752186066 0.5375998700692913 -1e-07 0.2976345103943434 0.5562144943757173 1e-07 1 2 2 3 -4 
4 0.2905748483385893 0.5562142943757175 -1e-07 0.2946862752186066 0.5746070661494563 1e-07 1 2 2 4 -5 
5 0.285316854888546 0.5746068661494564 -1e-07 0.2905750483385893 0.5927051983124841 1e-07 1 2 2 5 -6 
6 0.2789328457664754 0.5927049983124842 -1e-07 0.285317054888546 0.6104374658054034 1e-07 1 2 2 6 -7 
7 0.2714480157398059 0.6104372658054035 -1e-07 0.2789330457664754 0.6277338874695217 1e-07 1 2 2 7 -8 
8 0.262891904013159 0.6277336874695219 -1e-07 0.2714482157398059 0.6445262022305146 1e-07 1 2 2 8 -9 
9 0.2532982776506045 0.6445260022305147 -1e-07 0.262892104013159 0.660748138493699 1e-07 1 2 2 9 -10 
10 0.2427049983124842 0.6607479384936991 -1e-07 0.2532984776506045 0.6763356756877419 1e-07 1 2 2 10 -11 
11 0.2311538728327368 0.676335475687742 -1e-07 0.2427051983124842 0.6912272969246068 1e-07 1 2 2 11 -12 
12 0.2186904882264235 0.6912270969246069 -1e-07 0.2311540728327368 0.7053642317786065 1e-07 1 2 2 12 -13 
13 0.2053640317786066 0.7053640317786066 -1e-07 0.2186906882264235 0.7186906882264233 1e-07 1 2 2 13 -14 
14 0.1912270969246069 0.7186904882264235 -1e-07 0.2053642317786066 0.7311540728327367 1e-07 1 2 2 14 -15 
15 0.176335475687742 0.7311538728327368 -1e-07 0.1912272969246069 0.7427051983124842 1e-07 1 2 2 15 -16 
16 0.1607479384936989 0.7427049983124843 -1e-07 0.176335675687742 0.7532984776506045 1e-07 1 2 2 16 -17 
17 0.1445260022305145 0.7532982776506046 -1e-07 0.160748138493699 0.762892104013159 1e-07 1 2 2 17 -18 
18 0.1277336874695218 0.7628919040131591 -1e-07 0.1445262022305145 0.7714482157398058 1e-07 1 2 2 18 -19 
19 0.1104372658054034 0.7714480157398059 -1e-07 0.1277338874695218 0.7789330457664753 1e-07 1 2 2 19 -20 
20 0.09270499831248423 0.7789328457664754 -1e-07 0.1104374658054034 0.785317054888546 1e-07 1 2 2 20 -21 
21 0.07460686614945641 0.7853168548885461 -1e-07 0.09270519831248424 0.7905750483385893 1e-07 1 2 2 21 -22 
22 0.05621429437571742 0.7905748483385894 -1e-07 0.07460706614945642 0.7946862752186065 1e-07 1 2 2 22 -23 
23 0.03759987006929134 0.7946860752186066 -1e-07 0.05621449437571743 0.7976345103943433 1e-07 1 2 2 23 -24 
24 0.01883705585879406 0.7976343103943434 -1e-07 0.03760007006929134 0.7994081185284815 1e-07 1 2 2 24 -25 
25 -9.999999998205888e-08 0.7994079185284816 -1e-07 0.01883725585879406 0.8000001 1e-07 1 2 2 25 -26 
26 -0.01883725585879402 0.7994079185284816 -1e-07 1.000000000184881e-07 0.8000001 1e-07 1 2 2 26 -27 
27 -0.03760007006929125 0.7976343103943434 -1e-07 -0.01883705585879402 0.7994081185284815 1e-07 1 2 2 27 -28 
28 -0.05621449437571738 0.7946860752186067 -1e-07 -0.03759987006929124 0.7976345103943433 1e-07 1 2 2 28 -29 
29 -0.07460706614945646 0.7905748483385894 -1e-07 -0.05621429437571738 0.7946862752186066 1e-07 1 2 2 29 -30 
30 -0.09270519831248414 0.7853168548885462 -1e-07 -0.07460686614945646 0.7905750483385893 1e-07 1 2 2 30 -31 
31 -0.1104374658054033 0.7789328457664755 -1e-07 -0.09270499831248413 0.7853170548885461 1e-07 1 2 2 31 -32 
32 -0.1277338874695218 0.7714480157398059 -1e-07 -0.1104372658054033 0.7789330457664754 1e-07 1 2 2 32 -33 
33 -0.1445262022305146 0.7628919040131591 -1e-07 -0.1277336874695218 0.7714482157398058 1e-07 1 2 2 33 -34 
34 -0.1607481384936991 0.7532982776506045 -1e-07 -0.1445260022305146 0.762892104013159 1e-07 1 2 2 34 -35 
35 -0.1763356756877419 0.7427049983124843 -1e-07 -0.1607479384936991 0.7532984776506044 1e-07 1 2 2 35 -36 
36 -0.1912272969246069 0.7311538728327368 -1e-07 -0.1763354756877419 0.7427051983124842 1e-07 1 2 2 36 -37 
37 -0.2053642317786066 0.7186904882264235 -1e-07 -0.1912270969246069 0.7311540728327367 1e-07 1 2 2 37 -38 
38 -0.2186906882264234 0.7053640317786067 -1e-07 -0.2053640317786066 0.7186906882264233 1e-07 1 2 2 38 -39 
39 -0.2311540728327367 0.691227096924607 -1e-07 -0.2186904882264234 0.7053642317786066 1e-07 1 2 2 39 -40 
40 -0.2427051983124842 0.676335475687742 -1e-07 -0.2311538728327367 0.6912272969246069 1e-07 1 2 2 40 -41 
41 -0.2532984776506044 0.6607479384936992 -1e-07 -0.2427049983124842 0.6763356756877419 1e-07 1 2 2 41 -42 
42 -0.262892104013159 0.6445260022305146 -1e-07 -0.2532982776506044 0.6607481384936991 1e-07 1 2 2 42 -43 
43 -0.2714482157398058 0.627733687469522 -1e-07 -0.262891904013159 0.6445262022305145 1e-07 1 2 2 43 -44 
44 -0.2789330457664754 0.6104372658054035 -1e-07 -0.2714480157398058 0.6277338874695219 1e-07 1 2 2 44 -45 
45 -0.285317054888546 0.5927049983124842 -1e-07 -0.2789328457664754 0.6104374658054034 1e-07 1 2 2 45 -46 
46 -0.2905750483385893 0.5746068661494567 -1e-07 -0.285316854888546 0.5927051983124841 1e-07 1 2 2 46 -47 
47 -0.2946862752186066 0.5562142943757175 -1e-07 -0.2905748483385893 0.5746070661494566 1e-07 1 2 2 47 -48 
48 -0.2976345103943433 0.5375998700692914 -1e-07 -0.2946860752186066 0.5562144943757173 1e-07 1 2 2 48 -49 
49 -0.2994081185284815 0.5188370558587941 -1e-07 -0.2976343103943433 0.5376000700692913 1e-07 1 2 2 49 -50 
50 -0.3000001 0.4999999 -1e-07 -0.2994079185284815 0.518837255858794 1e-07 1 2 2 50 -51 
51 -0.3000001 0.481162744141206 -1e-07 -0.2994079185284815 0.5000000999999999 1e-07 1 2 2 51 -52 
52 -0.2994081185284815 0.4623999299307087 -1e-07 -0.2976343103943433 0.481162944141206 1e-07 1 2 2 52 -53 
53 -0.2976345103943434 0.4437855056242826 -1e-07 -0.2946860752186066 0.4624001299307087 1e-07 1 2 2 53 -54 
54 -0.2946862752186066 0.4253929338505436 -1e-07 -0.2905748483385893 0.4437857056242826 1e-07 1 2 2 54 -55 
55 -0.2905750483385893 0.4072948016875158 -1e-07 -0.2853168548885461 0.4253931338505436 1e-07 1 2 2 55 -56 
56 -0.2853170548885461 0.3895625341945966 -1e-07 -0.2789328457664754 0.4072950016875158 1e-07 1 2 2 56 -57 
57 -0.2789330457664754 0.3722661125304783 -1e-07 -0.2714480157398059 0.3895627341945966 1e-07 1 2 2 57 -58 
58 -0.2714482157398059 0.3554737977694854 -1e-07 -0.262891904013159 0.3722663125304783 1e-07 1 2 2 58 -59 
59 -0.262892104013159 0.3392518615063011 -1e-07 -0.2532982776506045 0.3554739977694854 1e-07 1 2 2 59 -60 
60 -0.2532984776506045 0.3236643243122582 -1e-07 -0.2427049983124843 0.3392520615063011 1e-07 1 2 2 60 -61 
61 -0.2427051983124843 0.3087727030753931 -1e-07 -0.2311538728327368 0.3236645243122582 1e-07 1 2 2 61 -62 
62 -0.2311540728327368 0.2946357682213935 -1e-07 -0.2186904882264235 0.3087729030753931 1e-07 1 2 2 62 -63 
63 -0.2186906882264235 0.2813093117735765 -1e-07 -0.2053640317786066 0.2946359682213935 1e-07 1 2 2 63 -64 
64 -0.2053642317786066 0.2688459271672632 -1e-07 -0.1912270969246068 0.2813095117735765 1e-07 1 2 2 64 -65 
65 -0.1912272969246069 0.2572948016875158 -1e-07 -0.176335475687742 0.2688461271672632 1e-07 1 2 2 65 -66 
66 -0.176335675687742 0.2467015223493954 -1e-07 -0.1607479384936989 0.2572950016875158 1e-07 1 2 2 66 -67 
67 -0.1607481384936989 0.237107895986841 -1e-07 -0.1445260022305146 0.2467017223493954 1e-07 1 2 2 67 -68 
68 -0.1445262022305146 0.2285517842601941 -1e-07 -0.1277336874695216 0.237108095986841 1e-07 1 2 2 68 -69 
69 -0.1277338874695216 0.2210669542335246 -1e-07 -0.1104372658054033 0.2285519842601941 1e-07 1 2 2 69 -70 
70 -0.1104374658054033 0.214682945111454 -1e-07 -0.09270499831248426 0.2210671542335246 1e-07 1 2 2 70 -71 
71 -0.09270519831248426 0.2094249516614107 -1e-07 -0.07460686614945633 0.214683145111454 1e-07 1 2 2 71 -72 
72 -0.07460706614945634 0.2053137247813934 -1e-07 -0.05621429437571739 0.2094251516614107 1e-07 1 2 2 72 -73 
73 -0.05621449437571739 0.2023654896056567 -1e-07 -0.03759987006929137 0.2053139247813934 1e-07 1 2 2 73 -74 
74 -0.03760007006929138 0.2005918814715185 -1e-07 -0.01883705585879396 0.2023656896056567 1e-07 1 2 2 74 -75 
75 -0.01883725585879396 0.1999999 -1e-07 9.999999994389497e-08 0.2005920814715185 1e-07 1 2 2 75 -76 
76 -1.000000000549173e-07 0.1999999 -1e-07 0.01883725585879385 0.2005920814715185 1e-07 1 2 2 76 -77 
77 0.01883705585879385 0.2005918814715185 -1e-07 0.03760007006929127 0.2023656896056567 1e-07 1 2 2 77 -78 
78 0.03759987006929127 0.2023654896056566 -1e-07 0.05621449437571728 0.2053139247813934 1e-07 1 2 2 78 -79 
79 0.05621429437571727 0.2053137247813934 -1e-07 0.07460706614945647 0.2094251516614107 1e-07 1 2 2 79 -80 
80 0.07460686614945647 0.2094249516614107 -1e-07 0.09270519831248417 0.2146831451114539 1e-07 1 2 2 80 -81 
81 0.09270499831248416 0.2146829451114539 -1e-07 0.1104374658054032 0.2210671542335245 1e-07 1 2 2 81 -82 
82 0.1104372658054032 0.2210669542335245 -1e-07 0.1277338874695216 0.228551984260194 1e-07 1 2 2 82 -83 
83 0.1277336874695215 0.228551784260194 -1e-07 0.1445262022305147 0.237108095986841 1e-07 1 2 2 83 -84 
84 0.1445260022305147 0.237107895986841 -1e-07 0.160748138493699 0.2467017223493955 1e-07 1 2 2 84 -85 
85 0.160747938493699 0.2467015223493955 -1e-07 0.1763356756877419 0.2572950016875157 1e-07 1 2 2 85 -86 
86 0.1763354756877419 0.2572948016875157 -1e-07 0.1912272969246068 0.2688461271672631 1e-07 1 2 2 86 -87 
87 0.1912270969246068 0.2688459271672631 -1e-07 0.2053642317786064 0.2813095117735764 1e-07 1 2 2 87 -88 
88 0.2053640317786064 0.2813093117735764 -1e-07 0.2186906882264234 0.2946359682213933 1e-07 1 2 2 88 -89 
89 0.2186904882264234 0.2946357682213933 -1e-07 0.2311540728327368 0.3087729030753931 1e-07 1 2 2 89 -90 
90 0.2311538728327368 0.3087727030753931 -1e-07 0.2427051983124842 0.323664524312258 1e-07 1 2 2 90 -91 
91 0.2427049983124842 0.323664324312258 -1e-07 0.2532984776506044 0.3392520615063009 1e-07 1 2 2 91 -92 
92 0.2532982776506044 0.3392518615063009 -1e-07 0.2628921040131589 0.3554739977694852 1e-07 1 2 2 92 -93 
93 0.2628919040131589 0.3554737977694852 -1e-07 0.2714482157398058 0.3722663125304781 1e-07 1 2 2 93 -94 
94 0.2714480157398058 0.3722661125304781 -1e-07 0.2789330457664754 0.3895627341945966 1e-07 1 2 2 94 -95 
95 0.2789328457664754 0.3895625341945966 -1e-07 0.285317054888546 0.4072950016875157 1e-07 1 2 2 95 -96 
96 0.285316854888546 0.4072948016875157 -1e-07 0.2905750483385893 0.4253931338505434 1e-07 1 2 2 96 -97 
97 0.2905748483385893 0.4253929338505434 -1e-07 0.2946862752186066 0.4437857056242826 1e-07 1 2 2 97 -98 
98 0.2946860752186066 0.4437855056242826 -1e-07 0.2976345103943433 0.4624001299307086 1e-07 1 2 2 98 -99 
99 0.2976343103943433 0.4623999299307086 -1e-07 0.2994081185284815 0.481162944141206 1e-07 1 2 2 99 -100 
100 0.2994079185284815 0.481162744141206 -1e-07 0.3000001 0.5000000999999999 1e-07 1 2 2 100 -1 
1 -0.3000001 0.1999999 -1e-07 0.3000001 0.8000001 1e-07 1 1 100 1 2 3 4 5 6 7 8 9 10 11 12 13 14 15 16 17 18 19 20 21 22 23 24 25 26 27 28 29 30 31 32 33 34 35 36 37 38 39 40 41 42 43 44 45 46 47 48 49 50 51 52 53 54 55 56 57 58 59 60 61 62 63 64 65 66 67 68 69 70 71 72 73 74 75 76 77 78 79 80 81 82 83 84 85 86 87 88 89 90 91 92 93 94 95 96 97 98 99 100 
$EndEntities
$Nodes
201 994 1 994
0 1 0 1
1
0.3 0.5 0
0 2 0 1
2
0.2994080185284815 0.518837155858794 0
0 3 0 1
3
0.2976344103943434 0.5375999700692913 0
0 4 0 1
4
0.2946861752186066 0.5562143943757174 0
0 5 0 1
5
0.2905749483385893 0.5746069661494564 0
0 6 0 1
6
0.285316954888546 0.5927050983124842 0
0 7 0 1
7
0.2789329457664754 0.6104373658054034 0
0 8 0 1
8
0.2714481157398059 0.6277337874695218 0
0 9 0 1
9
0.262892004013159 0.6445261022305147 0
0 10 0 1
10
0.2532983776506045 0.660748038493699 0
0 11 0 1
11
0.2427050983124842 0.6763355756877419 0
0 12 0 1
12
0.2311539728327368 0.6912271969246069 0
0 13 0 1
13
0.2186905882264235 0.7053641317786066 0
0 14 0 1
14
0.2053641317786066 0.7186905882264234 0
0 15 0 1
15
0.1912271969246069 0.7311539728327368 0
0 16 0 1
16
0.176335575687742 0.7427050983124842 0
0 17 0 1
17
0.160748038493699 0.7532983776506046 0
0 18 0 1
18
0.1445261022305145 0.762892004013159 0
0 19 0 1
19
0.1277337874695218 0.7714481157398059 0
0 20 0 1
20
0.1104373658054034 0.7789329457664753 0
0 21 0 1
21
0.09270509831248423 0.785316954888546 0
0 22 0 1
22
0.07460696614945642 0.7905749483385893 0
0 23 0 1
23
0.05621439437571742 0.7946861752186065 0
0 24 0 1
24
0.03759997006929134 0.7976344103943434 0
0 25 0 1
25
0.01883715585879406 0.7994080185284815 0
0 26 0 1
26
1.83697019872103e-17 0.8 0
0 27 0 1
27
-0.01883715585879402 0.7994080185284815 0
0 28 0 1
28
-0.03759997006929124 0.7976344103943434 0
0 29 0 1
29
-0.05621439437571738 0.7946861752186066 0
0 30 0 1
30
-0.07460696614945646 0.7905749483385893 0
0 31 0 1
31
-0.09270509831248414 0.7853169548885461 0
0 32 0 1
32
-0.1104373658054033 0.7789329457664754 0
0 33 0 1
33
-0.1277337874695218 0.7714481157398059 0
0 34 0 1
34
-0.1445261022305146 0.762892004013159 0
0 35 0 1
35
-0.1607480384936991 0.7532983776506045 0
0 36 0 1
36
-0.1763355756877419 0.7427050983124842 0
0 37 0 1
37
-0.1912271969246069 0.7311539728327368 0
0 38 0 1
38
-0.2053641317786066 0.7186905882264234 0
0 39 0 1
39
-0.2186905882264234 0.7053641317786067 0
0 40 0 1
40
-0.2311539728327367 0.691227196924607 0
0 41 0 1
41
-0.2427050983124842 0.6763355756877419 0
0 42 0 1
42
-0.2532983776506044 0.6607480384936991 0
0 43 0 1
43
-0.262892004013159 0.6445261022305145 0
0 44 0 1
44
-0.2714481157398058 0.6277337874695219 0
0 45 0 1
45
-0.2789329457664754 0.6104373658054034 0
0 46 0 1
46
-0.285316954888546 0.5927050983124842 0
0 47 0 1
47
-0.2905749483385893 0.5746069661494566 0
0 48 0 1
48
-0.2946861752186066 0.5562143943757174 0
0 49 0 1
49
-0.2976344103943433 0.5375999700692914 0
0 50 0 1
50
-0.2994080185284815 0.5188371558587941 0
0 51 0 1
51
-0.3 0.5 0
0 52 0 1
52
-0.2994080185284815 0.481162844141206 0
0 53 0 1
53
-0.2976344103943434 0.4624000299307087 0
0 54 0 1
54
-0.2946861752186066 0.4437856056242826 0
0 55 0 1
55
-0.2905749483385893 0.4253930338505436 0
0 56 0 1
56
-0.2853169548885461 0.4072949016875158 0
0 57 0 1
57
-0.2789329457664754 0.3895626341945966 0
0 58 0 1
58
-0.2714481157398059 0.3722662125304783 0
0 59 0 1
59
-0.262892004013159 0.3554738977694854 0
0 60 0 1
60
-0.2532983776506045 0.3392519615063011 0
0 61 0 1
61
-0.2427050983124843 0.3236644243122582 0
0 62 0 1
62
-0.2311539728327368 0.3087728030753931 0
0 63 0 1
63
-0.2186905882264235 0.2946358682213935 0
0 64 0 1
64
-0.2053641317786066 0.2813094117735765 0
0 65 0 1
65
-0.1912271969246069 0.2688460271672632 0
0 66 0 1
66
-0.176335575687742 0.2572949016875158 0
0 67 0 1
67
-0.1607480384936989 0.2467016223493954 0
0 68 0 1
68
-0.1445261022305146 0.237107995986841 0
0 69 0 1
69
-0.1277337874695216 0.2285518842601941 0
0 70 0 1
70
-0.1104373658054033 0.2210670542335246 0
0 71 0 1
71
-0.09270509831248426 0.214683045111454 0
0 72 0 1
72
-0.07460696614945633 0.2094250516614107 0
0 73 0 1
73
-0.05621439437571739 0.2053138247813934 0
0 74 0 1
74
-0.03759997006929137 0.2023655896056567 0
0 75 0 1
75
-0.01883715585879396 0.2005919814715185 0
0 76 0 1
76
-5.510910596163089e-17 0.2 0
0 77 0 1
77
0.01883715585879385 0.2005919814715185 0
0 78 0 1
78
0.03759997006929127 0.2023655896056566 0
0 79 0 1
79
0.05621439437571728 0.2053138247813934 0
0 80 0 1
80
0.07460696614945647 0.2094250516614107 0
0 81 0 1
81
0.09270509831248416 0.2146830451114539 0
0 82 0 1
82
0.1104373658054032 0.2210670542335245 0
0 83 0 1
83
0.1277337874695215 0.228551884260194 0
0 84 0 1
84
0.1445261022305147 0.237107995986841 0
0 85 0 1
85
0.160748038493699 0.2467016223493955 0
0 86 0 1
86
0.1763355756877419 0.2572949016875157 0
0 87 0 1
87
0.1912271969246068 0.2688460271672631 0
0 88 0 1
88
0.2053641317786064 0.2813094117735764 0
0 89 0 1
89
0.2186905882264234 0.2946358682213933 0
0 90 0 1
90
0.2311539728327368 0.3087728030753931 0
0 91 0 1
91
0.2427050983124842 0.323664424312258 0
0 92 0 1
92
0.2532983776506044 0.3392519615063009 0
0 93 0 1
93
0.2628920040131589 0.3554738977694852 0
0 94 0 1
94
0.2714481157398058 0.3722662125304781 0
0 95 0 1
95
0.2789329457664754 0.3895626341945966 0
0 96 0 1
96
0.285316954888546 0.4072949016875157 0
0 97 0 1
97
0.2905749483385893 0.4253930338505434 0
0 98 0 1
98
0.2946861752186066 0.4437856056242826 0
0 99 0 1
99
0.2976344103943433 0.4624000299307086 0
0 100 0 1
100
0.2994080185284815 0.481162844141206 0
1 1 0 0
1 2 0 0
1 3 0 0
1 4 0 0
1 5 0 0
1 6 0 0
1 7 0 0
1 8 0 0
1 9 0 0
1 10 0 0
1 11 0 0
1 12 0 0
1 13 0 0
1 14 0 0
1 15 0 0
1 16 0 0
1 17 0 0
1 18 0 0
1 19 0 0
1 20 0 0
1 21 0 0
1 22 0 0
1 23 0 0
1 24 0 0
1 25 0 0
1 26 0 0
1 27 0 0
1 28 0 0
1 29 0 0
1 30 0 0
1 31 0 0
1 32 0 0
1 33 0 0
1 34 0 0
1 35 0 0
1 36 0 0
1 37 0 0
1 38 0 0
1 39 0 0
1 40 0 0
1 41 0 0
1 42 0 0
1 43 0 0
1 44 0 0
1 45 0 0
1 46 0 0
1 47 0 0
1 48 0 0
1 49 0 0
1 50 0 0
1 51 0 0
1 52 0 0
1 53 0 0
1 54 0 0
1 55 0 0
1 56 0 0
1 57 0 0
1 58 0 0
1 59 0 0
1 60 0 0
1 61 0 0
1 62 0 0
1 63 0 0
1 64 0 0
1 65 0 0
1 66 0 0
1 67 0 0
1 68 0 0
1 69 0 0
1 70 0 0
1 71 0 0
1 72 0 0
1 73 0 0
1 74 0 0
1 75 0 0
1 76 0 0
1 77 0 0
1 78 0 0
1 79 0 0
1 80 0 0
1 81 0 0
1 82 0 0
1 83 0 0
1 84 0 0
1 85 0 0
1 86 0 0
1 87 0 0
1 88 0 0
1 89 0 0
1 90 0 0
1 91 0 0
1 92 0 0
1 93 0 0
1 94 0 0
1 95 0 0
1 96 0 0
1 97 0 0
1 98 0 0
1 99 0 0
1 100 0 0
2 1 0 894
101
102
103
104
105
106
107
108
109
110
111
112
113
114
115
116
117
118
119
120
121
122
123
124
125
126
127
128
129
130
131
132
133
134
135
136
137
138
139
140
141
142
143
144
145
146
147
148
149
150
151
152
153
154
155
156
157
158
159
160
161
162
163
164
165
166
167
168
169
170
171
172
173
174
175
176
177
178
179
180
181
182
183
184
185
186
187
188
189
190
191
192
193
194
195
196
197
198
199
200
201
202
203
204
205
206
207
208
209
210
211
212
213
214
215
216
217
218
219
220
221
222
223
224
225
226
227
228
229
230
231
232
233
234
235
236
237
238
239
240
241
242
243
244
245
246
247
248
249
250
251
252
253
254
255
256
257
258
259
260
261
262
263
264
265
266
267
268
269
270
271
272
273
274
275
276
277
278
279
280
281
282
283
284
285
286
287
288
289
290
291
292
293
294
295
296
297
298
299
300
301
302
303
304
305
306
307
308
309
310
311
312
313
314
315
316
317
318
319
320
321
322
323
324
325
326
327
328
329
330
331
332
333
334
335
336
337
338
339
340
341
342
343
344
345
346
347
348
349
350
351
352
353
354
355
356
357
358
359
360
361
362
363
364
365
366
367
368
369
370
371
372
373
374
375
376
377
378
379
380
381
382
383
384
385
386
387
388
389
390
391
392
393
394
395
396
397
398
399
400
401
402
403
404
405
406
407
408
409
410
411
412
413
414
415
416
417
418
419
420
421
422
423
424
425
426
427
428
429
430
431
432
433
434
435
436
437
438
439
440
441
442
443
444
445
446
447
448
449
450
451
452
453
454
455
456
457
458
459
460
461
462
463
464
465
466
467
468
469
470
471
472
473
474
475
476
477
478
479
480
481
482
483
484
485
486
487
488
489
490
491
492
493
494
495
496
497
498
499
500
501
502
503
504
505
506
507
508
509
510
511
512
513
514
515
516
517
518
519
520
521
522
523
524
525
526
527
528
529
530
531
532
533
534
535
536
537
538
539
540
541
542
543
544
545
546
547
548
549
550
551
552
553
554
555
556
557
558
559
560
561
562
563
564
565
566
567
568
569
570
571
572
573
574
575
576
577
578
579
580
581
582
583
584
585
586
587
588
589
590
591
592
593
594
595
596
597
598
599
600
601
602
603
604
605
606
607
608
609
610
611
612
613
614
615
616
617
618
619
620
621
622
623
624
625
626
627
628
629
630
631
632
633
634
635
636
637
638
639
640
641
642
643
644
645
646
647
648
649
650
651
652
653
654
655
656
657
658
659
660
661
662
663
664
665
666
667
668
669
670
671
672
673
674
675
676
677
678
679
680
681
682
683
684
685
686
687
688
689
690
691
692
693
694
695
696
697
698
699
700
701
702
703
704
705
706
707
708
709
710
711
712
713
714
715
716
717
718
719
720
721
722
723
724
725
726
727
728
729
730
731
732
733
734
735
736
737
738
739
740
741
742
743
744
745
746
747
748
749
750
751
752
753
754
755
756
757
758
759
760
761
762
763
764
765
766
767
768
769
770
771
772
773
774
775
776
777
778
779
780
781
782
783
784
785
786
787
788
789
790
791
792
793
794
795
796
797
798
799
800
801
802
803
804
805
806
807
808
809
810
811
812
813
814
815
816
817
818
819
820
821
822
823
824
825
826
827
828
829
830
831
832
833
834
835
836
837
838
839
840
841
842
843
844
845
846
847
848
849
850
851
852
853
854
855
856
857
858
859
860
861
862
863
864
865
866
867
868
869
870
871
872
873
874
875
876
877
878
879
880
881
882
883
884
885
886
887
888
889
890
891
892
893
894
895
896
897
898
899
900
901
902
903
904
905
906
907
908
909
910
911
912
913
914
915
916
917
918
919
920
921
922
923
924
925
926
927
928
929
930
931
932
933
934
935
936
937
938
939
940
941
942
943
944
945
946
947
948
949
950
951
952
953
954
955
956
957
958
959
960
961
962
963
964
965
966
967
968
969
970
971
972
973
974
975
976
977
978
979
980
981
982
983
984
985
986
987
988
989
990
991
992
993
994
0.07767328064197286 0.2251081166784125 0
-0.07934044676065936 0.7737246736475251 0
-0.2703398258113953 0.4193195178065761 0
0.2722252918982014 0.5789687451759649 0
0.2440465819293921 0.3556712537822813 0
-0.2457467948152405 0.6455061996782924 0
-0.129594574866129 0.2472933535673283 0
0.128736078996752 0.7547399965693691 0
0.1744416956297313 0.2754225052337881 0
-0.2126793358143708 0.3124979433345965 0
-0.1745187737251036 0.7243842280580947 0
-0.02668257326352032 0.2177278592913658 0
0.2113182189765734 0.686093952575908 0
0.2798500359065008 0.4548541197561721 0
-0.2800397284802875 0.5443539356639855 0
0.02571878962230536 0.7832555171819044 0
-0.2423286638638689 0.3556065167178447 0
-0.1758819466126009 0.27631667476965 0
0.1287083464674097 0.247263788857376 0
0.2833905537554783 0.5089059069364922 0
-0.07910247633030068 0.2277274906006625 0
-0.2836640044205915 0.4913021069580457 0
0.2667683562119418 0.4039574820187609 0
-0.2681190682412501 0.5965134841527262 0
0.02607022324723192 0.2180249328050052 0
-0.1301406176367881 0.7537886150459632 0
0.08152762402479492 0.7711647547411613 0
0.2454467534711073 0.6448912703439528 0
-0.2129196639857818 0.6870670778358949 0
0.1743092196906773 0.7246905235858324 0
0.2126793358143707 0.3124979433345965 0
-0.02674243540321025 0.7835150558398203 0
-0.2578990583766153 0.3870047974026469 0
0.2797594648089197 0.5442369812847394 0
0.2612889701156748 0.6130175215416939 0
-0.2804796772029763 0.4568757865217365 0
0.1452455921362226 0.2557182304482709 0
0.1298882031037294 0.2659163572542961 0
0.1130811290983766 0.2577336927867959 0
0.1142477344584817 0.276450990474169 0
0.0973475940359164 0.2681354811014323 0
0.09856597337970921 0.2869285399102557 0
0.11547661854055 0.2952515502017574 0
0.09980657068590024 0.3057330980222411 0
0.08290006169779478 0.2974045562281047 0
0.08413974815779972 0.3162104152823701 0
0.1010458042926766 0.3245395076719303 0
0.08537946514281826 0.3350162124358539 0
0.06847336033541633 0.3266871769476148 0
0.06971319099277341 0.3454928248214379 0
0.08661926348202729 0.3538219046182922 0
0.07095302613939591 0.3642984672191374 0
0.05404694997204439 0.3559693922713258 0
0.05528679336597293 0.3747750234576137 0
0.07219286790001543 0.3831041006561694 0
0.05652663777363436 0.3935806532850039 0
0.03962056290726384 0.3852515766730777 0
0.04086040806167979 0.4040572054869721 0
0.05776648312055425 0.4123862824951692 0
0.0421002532736256 0.4228628342191597 0
0.02519417854067596 0.414533757451751 0
0.02643402385137681 0.433339386057198 0
0.04334009916862995 0.4416684631429099 0
0.02767386917482024 0.4521450146462912 0
0.0107677944232877 0.4438159379027316 0
0.01200763974947432 0.4626215664883043 0
0.02891371450144941 0.470950643231296 0
0.0132474853023915 0.4814271950584799 0
-0.003658589638304395 0.4730981183280352 0
-0.002418744305399291 0.4919037469126407 0
0.01448733067407201 0.5002328236405285 0
-0.001178898970215632 0.5107093754970863 0
-0.01808497375875471 0.5023802987566132 0
0.01572717614644366 0.5190384522159277 0
6.094638212965256e-05 0.529515004080397 0
0.0169670215016492 0.5378440807990492 0
0.00130079171780748 0.5483206326648056 0
0.01820686647137914 0.5566497094075845 0
0.03387309641348887 0.5461731575870314 0
0.00254063695709691 0.5671262612555689 0
0.03511294125032337 0.5649787861579635 0
0.05077917083349189 0.5545022343626207 0
0.05201901595152362 0.5733078629075438 0
0.06768524536848092 0.5628313110665342 0
-0.01436543778041002 0.5587971845117309 0
-0.01312559246591151 0.5776028130975355 0
-0.03003166721757069 0.5692737363546305 0
-0.02879182189354406 0.5880793649398069 0
-0.04569789664532589 0.5797502881969101 0
0.06892509065893086 0.5816369396450449 0
0.08459132007692267 0.5711603878020222 0
-0.04445805131908365 0.5985559167819405 0
-0.06136412607116468 0.5902268400390633 0
-0.02755197656708461 0.6068849935248231 0
-0.04321820599254736 0.6173615453669514 0
-0.02631213124049931 0.6256906221098307 0
0.0858311653962814 0.5899660163857954 0
0.1014973948192638 0.5794894645433141 0
0.100257549492226 0.56068383595825 0
0.1171636242416546 0.5690129127007022 0
0.1159237789154648 0.5502072841157684 0
-0.06260397139779665 0.5714212114540588 0
-0.07827020082329895 0.5818977632961898 0
-0.07951004614993983 0.5630921347111858 0
-0.09517627557538756 0.5735686865533132 0
-0.09641612090202079 0.5547630579683086 0
-0.1120823503274582 0.5652396098104353 0
-0.1133221956540884 0.5464339812254306 0
-0.09393643024876069 0.5923743151383181 0
-0.1289884250795236 0.5569105330675572 0
-0.1302282704061529 0.5381049044825523 0
0.1027372401442724 0.5982950931280545 0
0.08707101071856775 0.6087716449701371 0
0.1328298536671623 0.5585363608585874 0
0.1315900083405455 0.5397307322735845 0
-0.0419783606659411 0.6361671739519578 0
-0.02507228591388141 0.6444962506948363 0
-0.1458944998315876 0.5485814563246789 0
-0.1471343451582166 0.5297758277396741 0
-0.1314681157327822 0.5192992758975475 0
-0.1483741904848457 0.5109701991546693 0
-0.1327079610594113 0.5004936473125428 0
-0.1496140358114748 0.4921645705696645 0
-0.1339478063860403 0.4816880187275379 0
-0.1508538811381039 0.4733589419846596 0
-0.1351876517126694 0.462882390142533 0
-0.152093726464733 0.4545533133996548 0
-0.1364274970392985 0.4440767615575281 0
-0.1446546545049586 0.5673870849096838 0
0.1484960830925371 0.5480598090164511 0
0.1472562377659111 0.5292541804314467 0
0.1039770854699076 0.6171007217129049 0
0.08831085604413974 0.6275772735549799 0
0.1497359284191671 0.5668654376014561 0
-0.04073851533931776 0.654972802536963 0
-0.02383244058725522 0.6633018792798414 0
-0.1533335717913621 0.43574768481465 0
-0.1376673423659276 0.4252711329725233 0
-0.1207612676138641 0.4336002097154014 0
-0.1220011129404932 0.4147945811303966 0
0.1303501633470534 0.5209251038718332 0
0.14601639269656 0.5104485518636827 0
0.1629224672342143 0.5187776285921918 0
0.16168262191473 0.4999720000076655 0
0.1447765473243814 0.4916429232081384 0
0.1604427765817002 0.4811663714109839 0
-0.1050950381884296 0.4231236578732748 0
-0.1063348835150587 0.4043180292882699 0
-0.1232409582671222 0.3959889525453917 0
-0.1075747288416878 0.3855124007032652 0
-0.09066865408962423 0.3938414774461433 0
-0.09190849941625329 0.3750358488611386 0
-0.1652802652369093 0.502641122411791 0
-0.1615607292570222 0.5590580081668055 0
-0.1603208839303932 0.5778636367518104 0
-0.1244808035937513 0.377183323960387 0
0.1052169307961947 0.635906350297857 0
0.08955070137067264 0.6463829021399701 0
0.1435367019906145 0.4728372945715684 0
0.1592029312528147 0.4623607428154387 0
-0.07500242466418974 0.3833649256040167 0
-0.0762422699908188 0.3645592970190119 0
0.1773488512901346 0.489495448162186 0
-0.1689998012167965 0.4462242366567766 0
-0.03949867001269023 0.673778431121968 0
-0.05640474476475376 0.6654493543790896 0
-0.02259259526062698 0.6821075078648463 0
-0.1702396465434257 0.4274186080717718 0
0.1422968565556483 0.4540316661534571 0
0.1579630859077535 0.4435551142564927 0
-0.05933619523875529 0.3728883737618901 0
-0.06057604056538444 0.3540827451768852 0
-0.07748211531744792 0.3457536684340072 0
-0.06181588589201358 0.3352771165918804 0
-0.04490981113995002 0.3436061933347585 0
-0.04614965646657924 0.3248005647497536 0
-0.006926365835192463 0.6716309560227198 0
-0.1170417316339768 0.4900170954704161 0
-0.005686520508563648 0.6904365846077247 0
0.1064567761227508 0.6547119788828506 0
0.09079054669730406 0.6651885307249754 0
0.1221230055481876 0.6442354270407245 0
-0.0630557312186428 0.3164714880068755 0
-0.1772269586824567 0.5695345600089321 0
-0.1759871133558277 0.5883401885939369 0
-0.1590810386037642 0.5966692653368152 0
-0.05516489943812521 0.6842549829640945 0
-0.07207097419018861 0.6759259062212162 0
-0.04738950179320849 0.3059949361647488 0
-0.03048342704114488 0.3143240129076268 0
-0.1859058759688601 0.4378951599138984 0
0.1410570111819203 0.4352260375089139 0
0.1567232405702025 0.4247494856659079 0
0.1736293153102476 0.4330785624071714 0
0.1723894699856217 0.4142729338224357 0
0.1554833952338919 0.4059438570796022 0
0.1711496246577129 0.3954673052372589 0
0.1266306277159016 0.4645082180206785 0
0.07264462661862509 0.6380538253970943 0
-0.05809634991212619 0.3916940023468949 0
-0.1747472680291987 0.6071458171789418 0
-0.1578411932771352 0.61547489392182 0
-0.1871457212954892 0.4190895313288936 0
0.107696621449368 0.6735176074678537 0
0.092030392023931 0.6839941593099799 0
0.154243549905436 0.3871382284943519 0
0.03139340632315496 0.5085619006293821 0
-0.08074989147658702 0.544286506126182 0
0.009979708916870856 0.6799600327655982 0
0.01121955424349975 0.698765661350603 0
0.06644539998546392 0.5440256824720673 0
-0.04243012048669174 0.3812174505047683 0
-0.00940605648844752 0.6340196988527098 0
0.1654021578445873 0.5563888857593272 0
0.1666420031712187 0.5751945143443324 0
0.1823082325966512 0.5647179625022055 0
0.1835480779232803 0.5835235910872105 0
-0.02135274993399832 0.7009131364498513 0
-0.03172327236777413 0.295518384322622 0
-0.01481719761571052 0.3038474610655 0
-0.01357735228908122 0.322653089650505 0
-0.07083112886355984 0.694731534806221 0
-0.0877372036156233 0.6864024580633425 0
-0.08897704894225213 0.6675968294783376 0
-0.1046432783676867 0.6780733813204641 0
0.1892955447360159 0.4226020105650897 0
0.169909779330566 0.3766616766521844 0
-0.01605704294233991 0.285041832480495 0
0.0008490318097237893 0.2933709092233732 0
-0.1928931881078912 0.5800111118510586 0
-0.1941330334345202 0.5612054832660538 0
-0.06429557654527211 0.2976658594218707 0
-0.07996180597070644 0.3081424112639976 0
0.1992143073487145 0.5730470392450838 0
0.1979744620220854 0.5542414106600789 0
-0.1735074227025697 0.6259514457639463 0
-0.2028119507209237 0.4295660831710203 0
-0.2015721053942945 0.4483717117560252 0
0.1530037045784162 0.3683325999092946 0
0.1385773205719975 0.3976147803304151 0
0.03635278646905894 0.5837844147417588 0
0.1678818484978457 0.594000142929337 0
0.1847879232499089 0.6023292196722154 0
-0.1058831236943155 0.6592677527354593 0
-0.1215493531197501 0.6697443045775857 0
-0.04119027516006265 0.4000230790897731 0
-0.03296311769440357 0.2767127557376168 0
0.1868158540825788 0.3849907533950561 0
-0.2040517960475528 0.4107604545860155 0
-0.1883855666221184 0.4002839027438888 0
-0.1203095077931214 0.6885499331625905 0
-0.1372155825451848 0.6802208564197121 0
0.02688578366893431 0.6882891095084767 0
0.02812562899556324 0.7070947380934816 0
0.01245939957012862 0.7175712899356079 0
0.1686699340037856 0.3578560480671592 0
0.1089364667759948 0.6923232360528582 0
0.1246026962014293 0.6818466842107316 0
0.09327023735055981 0.7027997878949849 0
-0.08649735828899448 0.7052080866483474 0
-0.06959128353693105 0.7135371633912259 0
-0.08120165129733582 0.2893367826789927 0
-0.0968678807227701 0.2998133345211196 0
-0.2097992628599547 0.5716820351081804 0
-0.2110391081865836 0.5528764065231755 0
-0.2085594175333257 0.5904876636931852 0
0.02936547432219209 0.7259003666784863 0
-0.0003908135169055766 0.2745652806383681 0
0.0165152612351581 0.2828943573812464 0
0.214880536774149 0.5625704874029572 0
0.2136406914475199 0.5437648588179522 0
0.1517638592746898 0.3495269712776072 0
0.01775510656178743 0.3016999859662512 0
-0.05685650458549712 0.4104996309318998 0
-0.1038551928618005 0.4419292864582796 0
0.02564593834230542 0.6694834809234718 0
-0.02552404573462819 0.3895465272476465 0
0.1905353900623667 0.4414076391500572 0
0.2062016194878105 0.4309310873079318 0
0.2074414648143947 0.4497367158929306 0
0.2231076942398232 0.4392601640508031 0
0.2243475395664438 0.4580657926358069 0
-0.03127151254413232 0.5504681077696212 0
-0.05888443541800576 0.6278380972090796 0
-0.03995042983343357 0.418828707674778 0
-0.05561665925886804 0.4293052595169046 0
0.1691216938244743 0.6128057715143419 0
0.1860277685765377 0.6211348482572203 0
0.1703615391511031 0.6316114000993468 0
-0.2184781801463581 0.4400426350131471 0
-0.2172383348197288 0.458848263598152 0
0.2016939980019724 0.6106582964150937 0
0.1674300886809485 0.3390504194743705 0
-0.2267053376120182 0.5633529583653021 0
-0.2279451829386472 0.5445473297802972 0
-0.2122789535132126 0.5340707779381707 0
-0.2291850282652762 0.5257417011952923 0
-0.2135187988398417 0.5152651493531659 0
-0.2304248735919052 0.5069360726102876 0
0.1258425415280581 0.7006523127957365 0
0.1415087709534924 0.6901757609536097 0
0.2218678489131931 0.4204545354657982 0
0.01369924489675739 0.736376918520613 0
0.1872676139031665 0.6399404768422252 0
-0.205291641374182 0.3919548260010106 0
-0.1896254119487475 0.381478274158884 0
0.1843361634298159 0.3473794962237305 0
-0.08525751296236568 0.7240137152333522 0
0.1505240139525099 0.3307213426835245 0
0.0334213360473944 0.2912234341084716 0
0.03218149067062112 0.2724178055365107 0
0.1360976298964114 0.3600035228775753 0
0.04503170374762672 0.7154238148363599 0
0.04627154907425556 0.7342294434213648 0
-0.172719337196684 0.3898073509017621 0
-0.173959182523313 0.3710017223167573 0
-0.1908652572753765 0.3626726455738791 0
-0.1751990278499421 0.3521960937317525 0
-0.1421749638517007 0.6049983420796935 0
0.04255201309436889 0.6778125576663501 0
-0.03871058450680451 0.4376343362597829 0
-0.05437681393223898 0.4481108881019095 0
0.1196433148952214 0.6066241698707598 0
-0.2003322600676654 0.46717734034103 0
-0.1409351185250717 0.6238039706646982 0
0.171601384477732 0.6504170286843518 0
0.2305467661995835 0.5520939355608305 0
0.2293069208729545 0.5332883069758256 0
0.2124008461208908 0.5249592302329474 0
0.2280670755463253 0.5144826783908207 0
-0.06835143821030229 0.7323427919762306 0
-0.135975737218556 0.6990264850047169 0
-0.1528818119706195 0.6906974082618385 0
-0.1541216572972482 0.6718917796768336 0
0.2317866115262125 0.5708995641458354 0
-0.2460911030173397 0.517412624452414 0
-0.2341444095717925 0.4505191868552738 0
0.166190243355693 0.3202447908865555 0
-0.09810772604939953 0.2810077059361148 0
-0.1137739554748338 0.2914842577782417 0
-0.1125341101482044 0.3102898863632465 0
-0.1294401137356192 0.3019608049285202 0
-0.1282003277128638 0.3207664374233986 0
-0.1451063455778008 0.3124371093173751 0
-0.08244149662396529 0.2705311540939879 0
-0.2209578707996164 0.4024313778431372 0
-0.1697878867226829 0.6823683315189598 0
0.244973150298389 0.5228117551336989 0
0.2437333049717598 0.5040061265486941 0
0.2400137689918759 0.44758924079368 0
-0.2473309483439686 0.4986069958674093 0
0.1492841482467812 0.3119156665466007 0
0.0490875676235979 0.2807468821246853 0
0.04784772008602656 0.2619412536969926 0
0.03466118140499683 0.3100290626661158 0
0.06193777849969027 0.7237528915792382 0
-0.05268520878486765 0.7218662401341043 0
-0.05144536345823885 0.7406718687191092 0
-0.03577913403280425 0.7301953168769828 0
-0.2353842548984216 0.4317135582702689 0
0.04131216776773998 0.6590069290813452 0
0.2086813101410079 0.4685423444779333 0
-0.02676389106125728 0.3707408986626416 0
-0.009857816309193733 0.3790699754055199 0
-0.01109766163582282 0.3602643468205151 0
0.005808413116240757 0.3685934235633933 0
0.00456856778961159 0.3497877949783884 0
-0.1190696624664926 0.7073555617475953 0
0.2111610007942617 0.5061536016479425 0
-0.1904134974546332 0.6176223690210683 0
-0.1891736521280042 0.6364279976060729 0
-0.2060797268800677 0.628098920863195 0
-0.2048398815534387 0.6469045494481995 0
0.09901770415454118 0.5418782073910342 0
-0.1252688890996371 0.6133274188225716 0
0.02440609301567646 0.6506778523384669 0
0.2412536143185031 0.4663948693786847 0
0.07636416259849615 0.6944707111521065 0
0.003780482284130274 0.5859318898405471 0
-0.1582929530978784 0.3605251704746307 0
-0.1966127240877782 0.5235942260960441 0
-0.02304435508137003 0.4271577844176563 0
0.04007232244111097 0.6402013004963403 0
0.02316624768904746 0.631872223753462 0
0.03883247711448198 0.6213956719113354 0
-0.03747073918017547 0.4564399648447877 0
-0.05313696860560998 0.4669165166869143 0
-0.07004304335767346 0.4585874399440361 0
-0.06880319803104441 0.4773930685290409 0
-0.05189712327898093 0.4857221452719191 0
-0.06756335270441537 0.4961986971140457 0
-0.0857092727831079 0.4690639917861626 0
-0.008617970982564713 0.3978756039905247 0
-0.05065727795235187 0.504527773856924 0
-0.1112942628447792 0.3290955148179222 0
0.1402689256268631 0.6713701323686047 0
-0.09021689426888094 0.6487912008933329 0
0.1534554643990396 0.6232823233564685 0
-0.1978525694144072 0.5047885975110394 0
0.1575605607749263 0.6802729947414069 0
-0.1269604919407476 0.3395720666383273 0
-0.2436114123640817 0.5550238816224238 0
-0.1307433170631959 0.2832838373949879 0
-0.134846013877216 0.7176674414425959 0
0.1885074592297955 0.6587461054272302 0
0.20417368865523 0.6482695535851035 0
0.03101990325937593 0.2537292008186086 0
0.04659119201611114 0.2431988032366328 0
-0.1921051026020056 0.3438670169888742 0
-0.1764388731765711 0.3333904651467476 0
-0.2077713320274401 0.354343568831001 0
0.1424419554588023 0.7090016075273116 0
-0.2221977161262455 0.3836257492581324 0
-0.03468705640312566 0.7487799793772516 0
0.1272199297607741 0.7190783895591251 0
-0.09909292390799561 0.2625828673015568 0
-0.05162701901028378 0.7615737484409622 0
0.06314925543126489 0.7425160991661852 0
0.07883912518591138 0.7320748981557736 0
0.04747829793998791 0.7529855808419685 0
-0.2421661008327057 0.5735253745098075 0
0.2470229382668098 0.5600493598357018 0
-0.2590416287810811 0.566539419774052 0
0.06475580914558102 0.2702681011090216 0
0.1336179232319815 0.3223921876662937 0
0.0214746425416757 0.3581168717212667 0
0.02023479721504597 0.3393112431362617 0
-0.06632350737778632 0.5150043256990506 0
-0.08322958212984984 0.5066752489561723 0
-0.04941743262572278 0.5233334024419289 0
-0.01889768723023253 0.7384875659390719 0
-0.1265087344262661 0.5945217902375668 0
-0.1401470330191859 0.3876598758025135 0
0.02192640236241845 0.6130665951684571 0
-0.07252273401093158 0.4209761827740264 0
0.0582182425198035 0.6673360058242235 0
0.1954947713688272 0.5166301534900691 0
-0.1071229690209444 0.6404621241504546 0
-0.09145673959550986 0.6299855723083281 0
-0.2159984894930997 0.4776538921831567 0
-0.110054418781103 0.3479011434861927 0
-0.1710277320493117 0.6635627029339551 0
-0.1553615026238769 0.6530861510918289 0
-0.2504215177680852 0.4421486426740033 0
-0.2492349563453901 0.4609577842391235 0
-0.1178298171398639 0.7261611903326003 0
-0.08433196108074131 0.7422258226644343 0
0.14390737859193 0.7275953394792032 0
-0.1859503814545439 0.6739902309314993 0
-0.1854541161481176 0.692844883361086 0
-0.01780424769475647 0.756360887713132 0
-0.2619471181302226 0.5090498871534135 0
0.1457779886000247 0.2743079820858484 0
0.09615736954758251 0.2497190329081583 0
0.1632342493987821 0.3013645757921665 0
0.1818588693324928 0.3062915457268502 0
0.2519791575729365 0.5800142655392269 0
0.2335236389882659 0.589760520102677 0
-0.2653370110318134 0.529274179081221 0
-0.08424244329475683 0.2479846067488192 0
-0.06680088886596709 0.2595326436762438 0
-0.1015520472115269 0.2470180435213176 0
-0.2092073610735865 0.3346671224844037 0
-0.2383647776451045 0.3943384787494048 0
0.2594268242537636 0.4556994471443904 0
0.2579934949082713 0.4750773297021365 0
0.2556799984173073 0.4371126889515531 0
-0.220392807199101 0.6383024794371709 0
-0.2224619943831293 0.6195465740133195 0
-0.2202543890079166 0.6558114953798898 0
0.2636042965987136 0.5122960291450979 0
0.2620985208601135 0.531596133002891 0
-0.2246774067795037 0.3460144920881227 0
0.2066245178734682 0.666954388855443 0
0.1904712232571308 0.6778358304189002 0
0.2204857240631112 0.655835030956389 0
0.2186940674172998 0.6377347530693152 0
0.1946986152552476 0.6984529535637086 0
0.1743828898095731 0.6886363775685571 0
0.08008369857838256 0.7508875969071218 0
0.09553663810493888 0.740423876843053 0
0.09683100258508377 0.7580173222301043 0
-0.2786448097232163 0.5186115798470085 0
-0.2521089335308187 0.4235626512426593 0
-0.2396438632426871 0.375739708470984 0
0.146921353030855 0.2931077615636903 0
-0.2647696887917866 0.4899823364482577 0
0.08020158308648304 0.2603368887158866 0
0.1310159722963099 0.284754966780423 0
0.08162744572410299 0.2786915875429802 0
0.06312081450399355 0.2520463597648379 0
0.0672334857213351 0.3078815876236602 0
0.1167127662875688 0.3140619186861566 0
0.1022855205820993 0.3433453141855392 0
0.1035253347286689 0.3621509858877334 0
0.08785910093980108 0.3726275439363754 0
0.08909894284265442 0.3914331773685791 0
0.1047651736237263 0.3809566233682429 0
0.1060050173410198 0.3997622546193584 0
0.09033878773586183 0.4102388069957698 0
0.1072448624753612 0.4185678837299545 0
0.0915786333155184 0.4290444359132867 0
0.1084847077930389 0.4373735125699025 0
0.09281847902283691 0.4478500645598775 0
0.07591240409359221 0.4395209881718495 0
0.07715224982680478 0.4583266167415707 0
0.09405832454783609 0.4666556933137757 0
0.07839209552787962 0.4771322453341324 0
0.09529817037529899 0.485461321877053 0
0.07963194112349892 0.495937873673675 0
0.06272586633099439 0.4876087974602568 0
0.06396571155682183 0.5064144259179194 0
0.09653801514949144 0.5042669502815847 0
0.1122042443361677 0.4937903986216136 0
0.06024617473783834 0.4499975402279331 0
0.04705963677893826 0.4980853493192886 0
0.04829948152473016 0.5168909776866665 0
0.04581979068193435 0.4792797204030403 0
0.05900632879069404 0.4311919113148173 0
0.04457994466471687 0.4604740917526759 0
0.1191915632543243 0.3516744346960451 0
0.05280710139344211 0.3371637680370675 0
0.05156726109933205 0.3183581328902799 0
0.06598863016878888 0.2890908709002563 0
0.03714087250940506 0.3476403191540337 0
0.03590102758510646 0.3288346900725024 0
0.02395433322048533 0.3957281288580049 0
-0.0019995948103667 0.7466858100006524 0
-0.0007163158399308163 0.767125974676462 0
0.01494082158602654 0.7548546116332919 0
0.01899495206104537 0.3205056143404821 0
0.03838071819411106 0.3664459472639316 0
0.09447374634973509 0.7216063767486091 0
0.1113736280309472 0.7295046219130941 0
-0.003216369560502941 0.7280137604372552 0
0.03263325134373177 0.527367529153408 0
-0.012337506962452 0.34145871823551 0
-0.08198973680321998 0.5254808775411772 0
-0.09889581155528428 0.5171518007982989 0
0.1101860916326782 0.7109941208274013 0
0.06069793317306146 0.7049472629942335 0
-0.03701897935943309 0.7113896882919779 0
0.05325886122877232 0.5921134914861614 0
-0.2617799182301171 0.5489174973938754 0
0.2387739236652461 0.4287836122086749 0
0.2371087368974053 0.4100060261640044 0
0.2205571133463514 0.4016535806375144 0
0.2357861862905386 0.3912058502951754 0
0.2192916687663138 0.3828496397979924 0
0.2359970777031637 0.370678146365901 0
0.2175141643032537 0.3638083872965674 0
0.25194612170941 0.3810237338741561 0
0.2541661606399349 0.4181475465908936 0
0.2723176283221299 0.4244686498616217 0
-0.1083628143475733 0.6216564955654497 0
0.02271448801268777 0.3769225001146577 0
0.003328722491753811 0.3309821663582542 0
-0.01064590181506685 0.6152140702677044 0
0.0375926317917396 0.6025900433267289 0
0.05449870654314508 0.6109191200696015 0
-0.1595327984245076 0.3417195418896259 0
0.2268272302196961 0.4956770498058158 0
0.1641623125251107 0.5375832571748022 0
-0.2456582759745458 0.5368195355875873 0
-0.04693774197140792 0.5609446596118692 0
-0.04817758729843461 0.5421390310268905 0
-0.03251135787306642 0.5316624791847683 0
-0.06508366205104649 0.5338099542840483 0
0.04379185842099786 0.696618186251355 0
-0.1938068220716637 0.3241739505097207 0
-0.1777755446426231 0.3143902004593909 0
-0.1934413263330047 0.3049241364780571 0
-0.1768104147405896 0.2952925470331355 0
-0.1614336464408614 0.3043583750597602 0
0.2004541526753435 0.5918526678300888 0
0.2174430911166444 0.6001909658016065 0
-0.1916533427812622 0.5988167404360635 0
0.03015356094342992 0.4897562718901478 0
-0.06553969214980755 0.2787732377409295 0
-0.04987417443735768 0.2682821870494799 0
-0.05110903777309694 0.2495780504097338 0
-0.03420379335284832 0.2578902118284018 0
-0.03481775716162069 0.2360535224697151 0
-0.0185367335955991 0.2474305753104843 0
-0.05224865706343262 0.2333362315249909 0
-0.01729702665760517 0.2662333846747882 0
-0.001630681908307558 0.2557591821832461 0
-0.001214407060584683 0.234347961020744 0
-0.2072322709985297 0.6092560805936905 0
-0.224123795549232 0.6009208019033956 0
-0.2417880714382517 0.612221961247984 0
0.1785886966246646 0.5083010767477203 0
-0.1665201105635383 0.4838354938267863 0
0.007500018263613425 0.6423487755955885 0
-0.2197180254729872 0.4212370064281422 0
0.1855760087559722 0.3661851248098238 0
-0.1690585053373684 0.7046965256157227 0
0.05697839719317717 0.648530377239219 0
-0.2405690453688478 0.5920499319496699 0
-0.02924358171451558 0.3331296414926318 0
0.1810683872712139 0.5459123339172806 0
-0.1434148091783297 0.5861927134946886 0
-0.1389071876925567 0.4064655043875184 0
-0.124029043773008 0.6321330474075765 0
-0.004898434996283694 0.4542924897449889 0
-0.03499104852423424 0.4940512220146204 0
-0.06795890772948047 0.7499775838050795 0
-0.1516419666439909 0.7095030368468433 0
-0.1496078532953894 0.7281555995255717 0
-0.1145620409807186 0.5276283526404258 0
-0.1714794918700548 0.4086129794867669 0
-0.07331081951681748 0.6571202776362113 0
-0.07376257933756063 0.4021705541890215 0
-0.05392505411149644 0.7030606115490994 0
-0.03825882468606171 0.6925840597069729 0
-0.01560528309098272 0.5399915559256673 0
-0.103403433041058 0.6968790099054689 0
-0.1021635877144291 0.7156846384904736 0
0.08335147474808888 0.5523547592199748 0
0.08211162991353063 0.5335491307425759 0
0.1880556994095889 0.4037963819801121 0
0.006260172936986683 0.6235431470105834 0
-0.1005608784089887 0.7343414770314189 0
-0.09887632333680302 0.7516171994551455 0
-0.1108425050008284 0.5840452383954401 0
-0.1277485797528941 0.575716161652562 0
-0.008166211161820211 0.6528253274377148 0
-0.2328086171365238 0.4693184896972323 0
-0.236632577181763 0.4129339535734886 0
-0.04366996581332087 0.3624118219197634 0
-0.004448265132801029 0.7092365329693164 0
-0.08446942745647891 0.4878696203711675 0
-0.1195214222872349 0.4524058383004063 0
-0.2253204932926807 0.5820031275882568 0
0.01944671173449559 0.5754553379979939 0
-0.06012428074462499 0.609032468624074 0
0.07140478129272901 0.6192481968121848 0
-0.08942880876299512 0.4126471060311482 0
0.1208831602216821 0.6254297984557385 0
-0.1013755022085424 0.4795405436282894 0
-0.09562803506667478 0.3186189630844029 0
-0.07128288868430249 0.4397818113590312 0
0.1576699611935466 0.6988412511210071 0
-0.1558132624446204 0.3981364276446403 0
0.05945808784643249 0.6861416344092284 0
0.2460847592664914 0.5416371321846264 0
0.1184034695690796 0.5878185412858328 0
0.1353095443205313 0.5961476180286143 0
0.07512431727186754 0.6756650825671018 0
-0.04862934711983775 0.2871893075797438 0
0.196734616695655 0.5354357820750874 0
-0.1677599558901674 0.4650298652417815 0
0.1798285419532809 0.5271067053328585 0
0.05573855186721154 0.6297247486542958 0
-0.01684512841852971 0.5211859273407223 0
0.1340696989938961 0.5773419894436085 0
0.1748691606476047 0.4518841909902326 0
0.1917752353907414 0.4602132677347324 0
0.19301508071587 0.4790188963200057 0
0.1761090059751523 0.4706898195736683 0
-0.0280037363878864 0.3519352700776368 0
-0.1545734171179912 0.4169420562296451 0
0.008739863590242087 0.6611544041805933 0
-0.184666030642231 0.4567007884989033 0
-0.02428420040799911 0.4083521558326514 0
-0.007378125655935692 0.4166812325755297 0
-0.02056466442075567 0.4647690415871562 0
0.07016493597307107 0.6004425682281541 0
0.1146839337651351 0.5314016557789856 0
0.03060531964882092 0.7447059952634913 0
0.03208338880165666 0.766015436810849 0
0.04970523251286033 0.7684163449025573 0
-0.09765596622865376 0.5359574293833039 0
-0.1413868783458149 0.3688542472175089 0
0.002088877169919775 0.3121765377673943 0
-0.02011716146517373 0.7197096472676323 0
-0.08694911810973695 0.4502583632011578 0
-0.08818896343636608 0.431452734616153 0
0.07388447194524167 0.6568594539820973 0
0.1398171659712427 0.4164204088285751 0
0.1373374752314453 0.3788091515644804 0
0.1522156190724415 0.6044766947714684 0
0.2424657606180819 0.4852593952271183 0
0.02068655704203299 0.5942609665835108 0
0.2162170564048883 0.5813868740880415 0
0.2334953207961359 0.6084226803532662 0
-0.01188574714118694 0.596408441682666 0
-0.1953728787611491 0.5423998546810489 0
-0.1797066493357147 0.5319233028389224 0
-0.1628005745836511 0.5402523795818007 0
-0.2238584114567594 0.3647465387970151 0
0.1546953097256685 0.6420879519414734 0
-0.07703035549667726 0.600703391881195 0
-0.0576445900913817 0.6466437257940847 0
-0.1784668040090857 0.5507289314239272 0
-0.1026153475351714 0.4607349150432845 0
0.1942549260435651 0.4978245249051435 0
-0.06384381672420207 0.5526155828690391 0
-0.1147906396675182 0.2732729738738754 0
-0.02180450975414447 0.4459634130026151 0
-0.1384554278718135 0.6614152278347073 0
0.07759716385957567 0.7132753214208243 0
-0.1001356568819133 0.4983461722132942 0
0.2255827683885609 0.4768812374313827 0
0.1509757737458067 0.5856710661864626 0
0.005020327611552437 0.6047375184255781 0
-0.1640404199102802 0.5214467509967958 0
0.2182944113611255 0.6189645117567051 0
0.2351848209763338 0.6289256732184323 0
0.1365493896470868 0.6149532466136075 0
-0.03375120319210995 0.5128568505992629 0
-0.1182815769606059 0.4712114668854112 0
0.01528845505364027 0.2641081544615361 0
0.2099203860504936 0.4873496090980373 0
-0.07455066484344521 0.6383146490512064 0
-0.07872196058916618 0.3269480398453821 0
-0.1158018863073478 0.5088227240554209 0
0.1233628508748054 0.6630410556257275 0
0.00952794909993279 0.4250103093135247 0
-0.1821863399889727 0.4943120456689128 0
0.007048258471192333 0.3873990521109173 0
0.01403557058189958 0.2452831002112362 0
0.2026919246525553 0.6294504066542772 0
0.1559994151182975 0.6609892114647989 0
0.1827427504456182 0.3280177556147874 0
0.1987222498982674 0.3369029898907362 0
-0.1438665551799167 0.331242947867642 0
0.2592495106787066 0.4931626440136078 0
0.2717634556980905 0.4830842864650253 0
-0.2066016283681252 0.373136933769987 0
-0.1834261853156018 0.4755064170839081 0
-0.1809464946623437 0.5131176742539176 0
-0.1570531077712494 0.3793307990596355 0
-0.006138280328815223 0.4354868611602674 0
-0.01932481908349916 0.4835746701714764 0
-0.09438818955700888 0.3374245916573402 0
-0.09314834453849148 0.3562302202626585 0
0.1390397903112379 0.6525804422733207 0
0.1377910199754837 0.6337615316135554 0
0.2049499591212412 0.4121262376823933 0
-0.03623089384887591 0.475245593429479 0
-0.07579051017006942 0.6195090204662012 0
-0.1990924147410363 0.4859829689260347 0
0.008288103782297667 0.4062046807167087 0
-0.1096026596742007 0.6028508669804449 0
-0.09269658492213186 0.6111799437233228 0
-0.122789198446379 0.6509386759925812 0
-0.1607726437511371 0.3229139133046207 0
-0.2147586441664708 0.4964595207681613 0
0.1730871554445759 0.6694829247175409 0
0.203711044798227 0.3933205477167825 0
-0.1088145740152779 0.3667067721081707 0
-0.125720648391523 0.3583776953405152 0
0.2024499127908142 0.3745045621954656 0
0.2009178277974644 0.3556687635903502 0
0.2167335964615503 0.3432321543046886 0
-0.1396952731984426 0.6426095992497027 0
-0.2316487277337609 0.4881293897347753 0
-0.1566013479505062 0.6342805225068244 0
-0.2485707936705975 0.4798013672824048 0
-0.1426267208967313 0.350048611571375 0
-0.1722675773759407 0.6447570743489508 0
-0.2049558337707738 0.6682610381470216 0
-0.1880358430553354 0.6556505989026166 0
-0.2650562090267117 0.4688848971185958 0
0.06148602062925802 0.4688031689279673 0
0.07467255819426899 0.4207153592377991 0
0.07343271292783153 0.4019097300064151 0
0.05032657701090752 0.2995549950522448 0
0.09777785969455678 0.523072578897778 0
0.1179518937143688 0.3328685428678897 0
0.1216712464515052 0.3892857027051202 0
0.1348578138873809 0.3411978336781559 0
0.1229110915300601 0.4080913321471537 0
0.1204314021728051 0.3704800721511363 0
0.1253907821482812 0.4457025894347026 0
0.1241509368499841 0.4268969607032004 0
0.1097245534065113 0.4561791413950224 0
0.04953932615292379 0.535696606002391 0
0.1109643989524261 0.4749847698631921 0
0.129110318617211 0.502119475151205 0
0.127870473156117 0.4833138465727327 0
0.1134440891516025 0.5125960271005 0
0.08087178551901417 0.5147435024869836 0
0.06520555577541408 0.5252200542181007 0
0.1321714636056744 0.3035806752408203 0
-0.1460167609331808 0.2940585159067285 0
-0.1467828920295568 0.2754252295739306 0
-0.2537900836592019 0.4057429908081726 0
0.06428292906715542 0.7608166965012317 0
0.2490637082058369 0.6007230345616391 0
0.2625445223724262 0.5503591795424794 0
0.1122288177025508 0.2393281189738371 0
-0.2263971842365653 0.3273165639081496 0
-0.06639167698026031 0.2399474636235026 0
0.03017134754978243 0.2355086915586828 0
0.04588479558028186 0.2221872001107462 0
0.06233834977949227 0.2340970696158261 0
-0.1311746009179948 0.2654126470708701 0
0.2792198645649367 0.5263940482194963 0
-0.2533299528758272 0.6287029163903852 0
-0.2612423945785505 0.6130496791273883 0
-0.276578950192517 0.5616746846569404 0
0.2005794406245346 0.2999083494022088 0
0.008393977033955261 0.2163552148770058 0
0.2248630252025775 0.6729061405892036 0
0.2664678380746118 0.5959776718227354 0
0.2777984710327281 0.5620953151841513 0
0.2248614690305369 0.3258351466028968 0
-0.2772262087834855 0.4385689970086141 0
-0.2833905537554781 0.4732117055767989 0
0.2354316760559595 0.3400007981725456 0
0.2537550809341765 0.629299086484397 0
-0.04474419726731692 0.7802814397441729 0
-0.2729142469918807 0.5791808390371929 0
-0.06209531518415124 0.7777984710327284 0
-0.1878172328250273 0.712175145188404 0
-0.2013574072904871 0.7000605816568548 0
0.1882449735751565 0.2864779903625172 0
-0.00938687459211234 0.216722145048717 0
-0.008941193743354623 0.7845133981561936 0
0.008518257757207088 0.7841707093388464 0
-0.1326706369303106 0.7360429939192235 0
0.1597001360048169 0.7351746556976977 0
-0.2247842631140516 0.6732624722219444 0
0.1126945105181934 0.7471057789386533 0
0.187582005541871 0.7161034059860367 0
0.1446759512693181 0.745053664848085 0
0.0944955017367085 0.2322906022298118 0
-0.03199425417031666 0.7670692575381246 0
0.1582255782916947 0.7172224556244469 0
-0.1458271897585206 0.2561336674713891 0
0.1978412968035672 0.3184102233978464 0
0.1603753860751976 0.2653618305086088 0
-0.255979317181478 0.5848001114410244 0
-0.2358004343652815 0.6321268038465881 0
-0.1139660423848783 0.7613852657215436 0
0.2513566109698678 0.3991527113845622 0
0.1281012461946525 0.7371796318845882 0
-0.2548860477992405 0.3696529928183912 0
-0.1156740526396054 0.7438894569176491 0
-0.1615104317950032 0.2850520831038623 0
-0.2367166207746168 0.6608724493565108 0
0.1723108640602168 0.7075289917214826 0
-0.1148758526478359 0.25603873188823 0
-0.2643006018103252 0.4501659571945609 0
-0.09573939383066991 0.7687570026116457 0
0.2364049277230506 0.6599559426631884 0
0.06383907459852024 0.7782267794251925 0
-0.2696069055693257 0.402935541367447 0
-0.1464062356902542 0.7457856544179873 0
-0.0441578340637968 0.2185439738099861 0
0.07899781654937212 0.2422663449854889 0
-0.01805587449095333 0.2308744245482682 0
-0.161181012396187 0.2661540298259572 0
0.2623140762286204 0.5662973730555049 0
0.2704711441629153 0.4423214050145019 0
-0.1156093264207577 0.2386234599910555 0
-0.1911939946763155 0.287041640925533 0
0.0154913422704569 0.2299039800945348 0
0.160519735445523 0.2831582578125283 0
0.01621111064542854 0.7707213474900367 0
0.2843963351217759 0.4705915555379844 0
-0.06385303654470978 0.2218379237051615 0
0.1124423739661011 0.7638441444103645 0
-0.2379599306067098 0.3382825981541233 0
0.2857978309992173 0.492944931050076 0
-0.2870639454717345 0.5058606700587546 0
-0.08226351906275604 0.7585482846222908 0
-0.1616417618647232 0.7368950105107733 0
-0.1978987107789661 0.6842216635507141 0
-0.09636478952968888 0.2319623100020259 0
-0.2633850417353029 0.4335596356052924 0
0.2291634500542949 0.353867741968921 0
0.2640641485173891 0.3893348878308143 0
0.2704545194283235 0.4670511366966258 0
-0.01680909992030222 0.7718087609865403 0
-0.2532384682989676 0.6005307643980113 0
0.06316986598405486 0.21872540678733 0
0.246269821288979 0.6167001641022666 0
0.2101675896016585 0.3273756915061529 0
0.1736599046763372 0.2905429749855701 0
0.2726990790677115 0.4986690620879858 0
0.2535828815108953 0.3664190858096169 0
-0.2044389516684844 0.2955610483315158 0
0.04174115070765601 0.7831268898766647 0
-0.06781620988573472 0.7647458536693768 0
0.2306675340207161 0.6462582673009988 0
-0.2848713589890968 0.5309393118308189 0
0.09822149842165234 0.7728207072177793 0
-0.1608800085759075 0.7195557816257543 0
0.2824876438868483 0.43725928080377 0
-0.2315824310174908 0.6470829731890295 0
-0.2747564794157598 0.5022730851036185 0
$EndNodes
$Elements
101 1986 101 2086
1 1 1 1
101 1 2 
1 2 1 1
102 2 3 
1 3 1 1
103 3 4 
1 4 1 1
104 4 5 
1 5 1 1
105 5 6 
1 6 1 1
106 6 7 
1 7 1 1
107 7 8 
1 8 1 1
108 8 9 
1 9 1 1
109 9 10 
1 10 1 1
110 10 11 
1 11 1 1
111 11 12 
1 12 1 1
112 12 13 
1 13 1 1
113 13 14 
1 14 1 1
114 14 15 
1 15 1 1
115 15 16 
1 16 1 1
116 16 17 
1 17 1 1
117 17 18 
1 18 1 1
118 18 19 
1 19 1 1
119 19 20 
1 20 1 1
120 20 21 
1 21 1 1
121 21 22 
1 22 1 1
122 22 23 
1 23 1 1
123 23 24 
1 24 1 1
124 24 25 
1 25 1 1
125 25 26 
1 26 1 1
126 26 27 
1 27 1 1
127 27 28 
1 28 1 1
128 28 29 
1 29 1 1
129 29 30 
1 30 1 1
130 30 31 
1 31 1 1
131 31 32 
1 32 1 1
132 32 33 
1 33 1 1
133 33 34 
1 34 1 1
134 34 35 
1 35 1 1
135 35 36 
1 36 1 1
136 36 37 
1 37 1 1
137 37 38 
1 38 1 1
138 38 39 
1 39 1 1
139 39 40 
1 40 1 1
140 40 41 
1 41 1 1
141 41 42 
1 42 1 1
142 42 43 
1 43 1 1
143 43 44 
1 44 1 1
144 44 45 
1 45 1 1
145 45 46 
1 46 1 1
146 46 47 
1 47 1 1
147 47 48 
1 48 1 1
148 48 49 
1 49 1 1
149 49 50 
1 50 1 1
150 50 51 
1 51 1 1
151 51 52 
1 52 1 1
152 52 53 
1 53 1 1
153 53 54 
1 54 1 1
154 54 55 
1 55 1 1
155 55 56 
1 56 1 1
156 56 57 
1 57 1 1
157 57 58 
1 58 1 1
158 58 59 
1 59 1 1
159 59 60 
1 60 1 1
160 60 61 
1 61 1 1
161 61 62 
1 62 1 1
162 62 63 
1 63 1 1
163 63 64 
1 64 1 1
164 64 65 
1 65 1 1
165 65 66 
1 66 1 1
166 66 67 
1 67 1 1
167 67 68 
1 68 1 1
168 68 69 
1 69 1 1
169 69 70 
1 70 1 1
170 70 71 
1 71 1 1
171 71 72 
1 72 1 1
172 72 73 
1 73 1 1
173 73 74 
1 74 1 1
174 74 75 
1 75 1 1
175 75 76 
1 76 1 1
176 76 77 
1 77 1 1
177 77 78 
1 78 1 1
178 78 79 
1 79 1 1
179 79 80 
1 80 1 1
180 80 81 
1 81 1 1
181 81 82 
1 82 1 1
182 82 83 
1 83 1 1
183 83 84 
1 84 1 1
184 84 85 
1 85 1 1
185 85 86 
1 86 1 1
186 86 87 
1 87 1 1
187 87 88 
1 88 1 1
188 88 89 
1 89 1 1
189 89 90 
1 90 1 1
190 90 91 
1 91 1 1
191 91 92 
1 92 1 1
192 92 93 
1 93 1 1
193 93 94 
1 94 1 1
194 94 95 
1 95 1 1
195 95 96 
1 96 1 1
196 96 97 
1 97 1 1
197 97 98 
1 98 1 1
198 98 99 
1 99 1 1
199 99 100 
1 100 1 1
200 100 1 
2 1 2 1886
201 104 907 557 
202 14 578 13 
203 133 585 564 
204 113 578 575 
205 113 575 574 
206 557 907 891 
207 122 911 587 
208 587 911 865 
209 96 654 123 
210 13 578 113 
211 560 972 121 
212 688 920 905 
213 110 670 563 
214 556 919 904 
215 111 917 697 
216 115 989 559 
217 129 925 863 
218 103 889 584 
219 120 900 571 
220 79 897 78 
221 559 644 115 
222 103 950 889 
223 500 850 579 
224 121 895 560 
225 578 944 579 
226 905 960 688 
227 927 944 578 
228 697 917 550 
229 683 952 112 
230 573 791 117 
231 97 654 96 
232 133 940 585 
233 562 972 560 
234 78 897 125 
235 556 982 919 
236 914 916 517 
237 580 582 127 
238 901 902 691 
239 23 986 949 
240 949 986 772 
241 3 900 2 
242 564 889 133 
243 110 672 670 
244 117 791 585 
245 123 654 653 
246 523 903 644 
247 644 903 115 
248 14 927 578 
249 559 989 583 
250 571 900 572 
251 70 972 958 
252 100 967 963 
253 107 932 68 
254 563 894 110 
255 863 971 129 
256 557 956 104 
257 579 743 500 
258 579 850 575 
259 863 925 570 
260 958 972 562 
261 697 991 111 
262 963 967 829 
263 574 906 113 
264 634 939 926 
265 565 957 114 
266 112 954 683 
267 134 892 572 
268 942 955 888 
269 904 933 556 
270 546 941 923 
271 114 976 565 
272 629 922 921 
273 952 964 73 
274 554 953 929 
275 572 900 134 
276 685 952 683 
277 571 983 120 
278 517 930 914 
279 127 890 580 
280 578 579 575 
281 691 936 901 
282 2 900 120 
283 134 900 3 
284 909 912 856 
285 118 955 942 
286 688 954 920 
287 926 939 108 
288 672 959 673 
289 771 986 116 
290 576 906 574 
291 929 953 101 
292 865 911 136 
293 923 941 126 
294 136 946 865 
295 772 986 771 
296 79 979 897 
297 685 964 952 
298 899 932 107 
299 582 990 127 
300 586 589 553 
301 672 985 959 
302 68 932 67 
303 937 947 32 
304 117 966 573 
305 917 918 550 
306 670 672 671 
307 553 589 138 
308 856 981 909 
309 573 894 563 
310 916 987 517 
311 672 673 671 
312 125 897 896 
313 523 915 903 
314 589 886 143 
315 673 674 671 
316 586 886 589 
317 118 942 673 
318 140 589 143 
319 588 590 524 
320 524 591 588 
321 141 590 588 
322 454 591 524 
323 508 591 454 
324 145 624 590 
325 590 624 524 
326 674 848 671 
327 444 848 674 
328 145 590 142 
329 525 886 452 
330 674 887 444 
331 593 886 525 
332 593 871 147 
333 452 886 586 
334 525 871 593 
335 144 593 147 
336 624 869 453 
337 524 624 453 
338 592 869 624 
339 592 624 145 
340 616 617 307 
341 174 636 176 
342 167 620 618 
343 146 592 145 
344 617 636 307 
345 307 678 616 
346 615 620 163 
347 618 678 167 
348 168 678 171 
349 159 619 160 
350 163 619 615 
351 620 866 618 
352 159 867 619 
353 176 636 179 
354 307 636 174 
355 160 619 163 
356 615 866 620 
357 616 678 618 
358 159 868 867 
359 720 885 884 
360 884 885 612 
361 598 599 597 
362 881 883 614 
363 867 868 600 
364 164 620 167 
365 163 620 164 
366 871 873 621 
367 167 678 168 
368 171 678 307 
369 596 598 597 
370 152 596 155 
371 876 877 292 
372 872 875 781 
373 596 597 155 
374 600 868 597 
375 594 595 151 
376 410 869 455 
377 151 596 152 
378 525 873 871 
379 148 594 151 
380 594 871 621 
381 599 600 597 
382 455 869 623 
383 622 626 623 
384 179 879 182 
385 412 873 372 
386 623 626 455 
387 453 869 410 
388 594 621 595 
389 595 596 151 
390 622 623 149 
391 614 883 613 
392 597 868 155 
393 598 875 872 
394 599 601 600 
395 595 598 596 
396 621 873 412 
397 878 880 607 
398 601 602 600 
399 150 622 149 
400 601 603 602 
401 625 626 622 
402 603 604 602 
403 153 625 622 
404 604 605 602 
405 153 632 625 
406 604 606 605 
407 154 632 153 
408 604 607 606 
409 606 615 605 
410 615 619 605 
411 632 656 526 
412 607 608 606 
413 625 632 526 
414 328 686 368 
415 157 656 632 
416 456 802 519 
417 359 640 633 
418 684 688 687 
419 684 687 686 
420 634 640 515 
421 680 682 347 
422 403 630 628 
423 661 848 827 
424 628 635 403 
425 633 640 634 
426 686 687 368 
427 626 631 455 
428 527 657 631 
429 607 609 608 
430 531 635 628 
431 347 686 328 
432 527 631 626 
433 403 770 630 
434 661 861 480 
435 531 776 635 
436 511 830 791 
437 519 802 633 
438 347 750 680 
439 827 848 444 
440 655 704 475 
441 426 850 824 
442 645 653 567 
443 669 745 641 
444 638 668 308 
445 533 833 774 
446 84 119 83 
447 321 657 637 
448 569 690 689 
449 731 776 318 
450 682 686 347 
451 537 797 469 
452 357 640 359 
453 680 750 679 
454 637 700 321 
455 641 802 456 
456 627 656 157 
457 504 708 432 
458 521 734 699 
459 457 714 642 
460 641 745 478 
461 667 811 755 
462 49 115 48 
463 786 809 808 
464 43 106 42 
465 700 761 275 
466 642 715 318 
467 538 704 655 
468 786 808 676 
469 559 664 644 
470 450 645 567 
471 321 775 657 
472 699 734 690 
473 633 802 359 
474 653 654 567 
475 404 505 426 
476 530 667 666 
477 815 842 384 
478 637 657 467 
479 498 839 810 
480 467 657 527 
481 528 668 638 
482 526 656 466 
483 318 776 642 
484 481 788 396 
485 517 707 458 
486 317 675 343 
487 468 718 546 
488 479 806 787 
489 530 811 667 
490 744 762 711 
491 202 798 665 
492 371 427 370 
493 502 664 395 
494 335 751 371 
495 381 645 450 
496 420 745 669 
497 694 722 484 
498 666 668 530 
499 628 629 551 
500 396 788 365 
501 675 676 392 
502 637 761 700 
503 534 659 485 
504 643 660 659 
505 171 174 172 
506 197 768 190 
507 343 675 392 
508 361 714 457 
509 486 800 767 
510 657 775 631 
511 767 800 705 
512 75 112 74 
513 322 714 361 
514 341 784 735 
515 774 833 480 
516 644 664 502 
517 752 831 764 
518 297 721 295 
519 404 823 506 
520 417 830 511 
521 561 679 445 
522 566 783 477 
523 691 699 690 
524 316 701 335 
525 429 537 469 
526 430 662 449 
527 735 784 479 
528 78 125 77 
529 252 852 837 
530 542 864 862 
531 229 726 702 
532 569 691 690 
533 609 610 608 
534 659 784 341 
535 401 512 400 
536 571 572 448 
537 666 798 668 
538 46 124 45 
539 72 121 71 
540 797 814 469 
541 276 700 275 
542 460 729 695 
543 473 568 472 
544 470 689 677 
545 609 613 610 
546 90 131 89 
547 209 725 205 
548 299 754 737 
549 432 708 433 
550 459 776 531 
551 638 773 639 
552 703 762 744 
553 740 812 796 
554 190 768 643 
555 356 696 327 
556 392 823 388 
557 857 859 425 
558 439 516 445 
559 584 729 460 
560 717 718 468 
561 718 723 546 
562 69 107 68 
563 819 844 161 
564 400 640 357 
565 391 728 437 
566 569 689 472 
567 511 563 509 
568 742 778 535 
569 698 779 536 
570 770 771 630 
571 706 841 835 
572 344 847 538 
573 413 669 641 
574 670 671 510 
575 172 173 170 
576 234 756 214 
577 258 779 299 
578 327 696 348 
579 493 766 765 
580 504 709 708 
581 60 117 59 
582 261 713 251 
583 314 701 316 
584 679 750 332 
585 371 751 429 
586 498 782 387 
587 427 746 522 
588 475 845 655 
589 187 665 383 
590 208 773 206 
591 665 666 383 
592 388 404 389 
593 428 746 427 
594 439 799 516 
595 535 738 713 
596 816 836 741 
597 789 795 788 
598 16 130 15 
599 263 760 759 
600 319 320 290 
601 368 813 369 
602 411 453 410 
603 555 556 438 
604 813 822 507 
605 519 580 518 
606 561 680 679 
607 213 768 197 
608 223 693 225 
609 265 715 287 
610 271 312 300 
611 336 470 301 
612 547 723 408 
613 509 670 510 
614 534 784 659 
615 581 582 580 
616 238 703 240 
617 240 703 249 
618 262 271 261 
619 312 377 346 
620 312 730 463 
621 360 717 323 
622 643 659 341 
623 361 457 431 
624 500 743 401 
625 456 519 518 
626 530 668 528 
627 808 809 577 
628 796 812 733 
629 789 832 807 
630 63 110 62 
631 160 161 158 
632 193 203 202 
633 229 254 218 
634 693 752 225 
635 234 805 756 
636 291 303 268 
637 354 367 355 
638 676 808 392 
639 458 707 431 
640 433 447 434 
641 437 728 545 
642 465 637 467 
643 659 660 485 
644 687 822 813 
645 164 165 162 
646 210 218 211 
647 283 333 332 
648 690 734 366 
649 413 414 367 
650 520 770 414 
651 475 704 425 
652 441 442 440 
653 459 531 514 
654 481 789 788 
655 766 834 482 
656 521 523 502 
657 692 797 537 
658 639 773 710 
659 171 307 174 
660 262 273 272 
661 286 301 285 
662 469 662 430 
663 472 689 470 
664 792 839 498 
665 511 791 573 
666 649 651 650 
667 6 104 5 
668 37 111 36 
669 229 255 254 
670 232 739 257 
671 375 733 239 
672 250 251 248 
673 252 261 251 
674 288 712 266 
675 289 290 276 
676 286 702 419 
677 308 773 638 
678 320 775 321 
679 346 765 385 
680 358 401 400 
681 445 679 362 
682 415 744 711 
683 446 564 513 
684 467 526 466 
685 656 821 466 
686 491 732 489 
687 510 848 661 
688 702 726 532 
689 609 614 613 
690 647 648 646 
691 790 807 219 
692 348 721 297 
693 313 722 694 
694 330 364 331 
695 364 365 331 
696 397 399 398 
697 430 449 448 
698 563 670 509 
699 516 562 560 
700 158 627 157 
701 169 705 166 
702 755 811 173 
703 219 221 220 
704 221 253 223 
705 224 278 222 
706 237 238 228 
707 713 738 251 
708 497 712 324 
709 326 379 378 
710 394 395 365 
711 379 381 380 
712 385 482 421 
713 460 695 390 
714 540 728 391 
715 409 525 452 
716 429 430 428 
717 433 708 697 
718 442 503 440 
719 765 766 482 
720 612 616 611 
721 787 806 658 
722 186 787 188 
723 192 193 189 
724 196 658 313 
725 207 208 206 
726 211 710 208 
727 229 702 255 
728 260 760 246 
729 255 284 254 
730 286 302 301 
731 332 750 289 
732 419 425 302 
733 353 354 310 
734 390 695 337 
735 782 805 342 
736 393 407 356 
737 677 689 366 
738 398 499 481 
739 417 418 416 
740 419 702 532 
741 437 544 460 
742 437 545 544 
743 461 698 536 
744 660 754 485 
745 311 719 184 
746 219 220 211 
747 239 733 228 
748 281 779 258 
749 349 695 446 
750 358 818 496 
751 468 504 432 
752 489 492 488 
753 528 638 529 
754 610 612 611 
755 19 108 18 
756 479 787 186 
757 205 206 204 
758 210 726 229 
759 299 737 233 
760 265 266 235 
761 240 249 248 
762 246 263 244 
763 275 730 272 
764 273 836 816 
765 305 749 281 
766 296 297 295 
767 311 720 719 
768 663 701 314 
769 317 342 315 
770 371 428 427 
771 395 397 396 
772 516 560 445 
773 544 584 460 
774 506 574 505 
775 737 754 660 
776 185 716 177 
777 186 188 187 
778 384 736 195 
779 203 205 204 
780 217 236 235 
781 218 790 219 
782 223 224 222 
783 227 228 226 
784 230 314 234 
785 275 761 730 
786 378 757 294 
787 339 356 327 
788 335 371 370 
789 689 690 366 
790 667 716 383 
791 413 641 456 
792 662 783 449 
793 539 815 497 
794 498 810 782 
795 539 842 815 
796 650 652 648 
797 810 839 739 
798 756 805 748 
799 790 795 789 
800 25 116 24 
801 193 202 189 
802 196 217 216 
803 238 239 228 
804 242 243 231 
805 269 270 260 
806 278 812 740 
807 314 316 315 
808 322 360 323 
809 323 717 325 
810 406 415 350 
811 414 770 367 
812 687 813 368 
813 402 645 381 
814 406 417 416 
815 542 543 434 
816 484 722 534 
817 494 530 528 
818 527 625 526 
819 744 833 533 
820 732 803 740 
821 176 179 178 
822 184 191 190 
823 214 756 200 
824 220 710 211 
825 242 245 244 
826 259 260 246 
827 249 250 248 
828 759 797 263 
829 330 331 284 
830 320 321 290 
831 470 677 301 
832 372 393 356 
833 493 765 377 
834 422 742 386 
835 409 438 393 
836 747 748 423 
837 447 697 550 
838 471 473 472 
839 473 570 568 
840 488 777 742 
841 490 706 494 
842 528 529 491 
843 703 744 533 
844 612 617 616 
845 662 804 783 
846 28 132 27 
847 341 735 181 
848 195 736 192 
849 736 793 193 
850 204 798 202 
851 203 209 205 
852 205 725 207 
853 209 846 845 
854 223 225 224 
855 225 227 226 
856 243 753 663 
857 246 760 263 
858 249 703 533 
859 257 739 282 
860 262 272 271 
861 752 764 264 
862 294 757 270 
863 274 275 272 
864 727 763 277 
865 324 712 288 
866 326 378 294 
867 296 306 297 
868 304 818 358 
869 306 339 327 
870 668 798 308 
871 319 750 347 
872 338 390 337 
873 337 695 349 
874 363 441 440 
875 364 394 365 
876 376 476 461 
877 450 477 382 
878 385 765 482 
879 394 521 502 
880 408 723 718 
881 495 501 443 
882 463 761 465 
883 568 569 472 
884 487 490 489 
885 175 755 172 
886 180 186 185 
887 183 643 341 
888 186 187 185 
889 202 665 189 
890 220 817 710 
891 228 733 226 
892 267 715 265 
893 269 292 270 
894 293 294 270 
895 274 276 275 
896 803 817 278 
897 478 749 305 
898 319 347 328 
899 339 412 372 
900 352 801 345 
901 363 741 441 
902 381 450 382 
903 394 734 521 
904 421 486 422 
905 505 850 426 
906 433 697 447 
907 695 729 446 
908 462 759 758 
909 719 720 474 
910 492 777 488 
911 494 528 491 
912 529 732 491 
913 523 644 502 
914 574 575 505 
915 665 798 666 
916 835 841 767 
917 179 182 181 
918 188 189 187 
919 196 216 195 
920 216 384 195 
921 710 773 208 
922 215 230 214 
923 241 242 231 
924 259 269 260 
925 270 757 260 
926 271 730 312 
927 286 419 302 
928 698 754 299 
929 309 376 353 
930 325 717 351 
931 333 362 332 
932 701 751 335 
933 358 496 401 
934 372 409 393 
935 512 515 400 
936 419 475 425 
937 421 800 486 
938 430 448 428 
939 441 495 443 
940 449 571 448 
941 476 484 483 
942 484 485 483 
943 519 633 581 
944 638 639 529 
945 536 779 749 
946 663 753 701 
947 174 175 172 
948 180 185 177 
949 180 479 186 
950 189 665 187 
951 194 196 195 
952 194 658 196 
953 203 793 209 
954 218 219 211 
955 230 663 314 
956 259 298 269 
957 290 700 276 
958 277 763 309 
959 331 795 284 
960 329 775 320 
961 333 741 363 
962 346 385 374 
963 351 717 468 
964 439 445 362 
965 462 758 380 
966 447 549 542 
967 463 465 464 
968 476 694 484 
969 784 806 479 
970 616 618 611 
971 759 760 758 
972 54 136 53 
973 181 735 178 
974 182 183 181 
975 182 184 183 
976 184 719 191 
977 187 383 185 
978 191 198 197 
979 191 199 198 
980 212 213 197 
981 199 200 198 
982 232 233 213 
983 233 737 213 
984 245 259 246 
985 249 256 250 
986 749 779 281 
987 374 713 300 
988 344 497 324 
989 365 788 331 
990 333 363 362 
991 395 396 365 
992 419 532 475 
993 454 524 453 
994 465 467 466 
995 484 534 485 
996 506 577 576 
997 511 573 563 
998 531 628 551 
999 538 847 704 
1000 766 844 819 
1001 40 129 39 
1002 164 166 165 
1003 179 181 178 
1004 180 735 479 
1005 188 192 189 
1006 199 201 200 
1007 199 474 201 
1008 201 215 214 
1009 212 423 232 
1010 215 231 230 
1011 258 299 233 
1012 238 240 239 
1013 244 692 243 
1014 252 262 261 
1015 299 779 698 
1016 325 351 345 
1017 405 406 350 
1018 367 403 355 
1019 363 439 362 
1020 397 436 399 
1021 417 511 509 
1022 509 510 418 
1023 488 742 422 
1024 452 586 555 
1025 457 642 459 
1026 564 585 513 
1027 585 791 513 
1028 566 828 783 
1029 643 768 660 
1030 646 653 645 
1031 675 785 676 
1032 782 810 748 
1033 34 126 33 
1034 56 103 55 
1035 81 101 80 
1036 182 311 184 
1037 184 190 183 
1038 201 214 200 
1039 203 204 202 
1040 212 747 423 
1041 221 223 222 
1042 257 258 233 
1043 238 762 703 
1044 240 247 239 
1045 240 248 247 
1046 280 281 258 
1047 271 300 261 
1048 279 318 267 
1049 318 715 267 
1050 304 305 281 
1051 296 340 306 
1052 350 711 303 
1053 304 358 357 
1054 357 359 305 
1055 359 478 305 
1056 354 355 310 
1057 316 334 317 
1058 319 328 320 
1059 464 493 377 
1060 406 416 415 
1061 406 830 417 
1062 518 520 414 
1063 560 561 445 
1064 476 483 461 
1065 489 732 492 
1066 490 494 491 
1067 791 830 513 
1068 529 803 732 
1069 535 778 738 
1070 627 821 656 
1071 13 113 12 
1072 87 109 86 
1073 166 705 165 
1074 705 834 165 
1075 188 787 194 
1076 200 747 198 
1077 215 241 231 
1078 215 769 241 
1079 253 693 223 
1080 227 237 228 
1081 227 264 237 
1082 236 727 277 
1083 257 280 258 
1084 280 304 281 
1085 291 338 337 
1086 292 780 293 
1087 295 326 294 
1088 327 348 297 
1089 306 781 339 
1090 328 329 320 
1091 328 368 329 
1092 338 391 390 
1093 376 763 476 
1094 379 380 378 
1095 385 421 386 
1096 424 540 391 
1097 394 502 395 
1098 446 729 564 
1099 450 565 477 
1100 730 761 463 
1101 667 755 716 
1102 693 831 752 
1103 777 778 742 
1104 758 760 757 
1105 31 102 30 
1106 99 114 98 
1107 163 164 162 
1108 167 168 166 
1109 178 180 177 
1110 178 735 180 
1111 191 197 190 
1112 191 719 199 
1113 198 212 197 
1114 212 232 213 
1115 217 235 216 
1116 227 752 264 
1117 250 252 251 
1118 300 713 261 
1119 301 677 285 
1120 295 721 326 
1121 349 350 303 
1122 335 370 334 
1123 339 372 356 
1124 407 696 356 
1125 421 422 386 
1126 389 792 498 
1127 452 555 438 
1128 441 443 442 
1129 467 527 526 
1130 468 546 504 
1131 542 862 543 
1132 647 649 648 
1133 681 682 680 
1134 748 805 782 
1135 161 627 158 
1136 161 844 627 
1137 168 170 169 
1138 716 755 175 
1139 199 719 474 
1140 206 773 308 
1141 217 727 236 
1142 231 663 230 
1143 232 257 233 
1144 249 533 256 
1145 265 287 266 
1146 272 730 271 
1147 283 289 276 
1148 287 322 288 
1149 287 715 714 
1150 289 319 290 
1151 788 795 331 
1152 362 679 332 
1153 377 765 346 
1154 369 813 411 
1155 376 461 420 
1156 463 464 377 
1157 382 462 380 
1158 388 389 387 
1159 397 664 436 
1160 825 826 407 
1161 429 469 430 
1162 514 517 458 
1163 532 726 725 
1164 714 715 642 
1165 683 684 682 
1166 160 162 161 
1167 171 172 170 
1168 176 178 177 
1169 196 313 217 
1170 474 769 201 
1171 225 226 224 
1172 423 739 232 
1173 247 375 239 
1174 263 692 244 
1175 247 778 375 
1176 257 282 280 
1177 292 293 270 
1178 293 295 294 
1179 306 327 297 
1180 346 374 300 
1181 304 357 305 
1182 312 463 377 
1183 369 373 329 
1184 339 781 412 
1185 343 387 342 
1186 386 742 535 
1187 404 426 389 
1188 395 664 397 
1189 402 647 646 
1190 446 513 405 
1191 486 487 422 
1192 423 810 739 
1193 427 522 435 
1194 440 799 439 
1195 483 698 461 
1196 487 489 488 
1197 490 491 489 
1198 688 822 687 
1199 236 265 235 
1200 242 244 243 
1201 273 274 272 
1202 289 750 319 
1203 316 335 334 
1204 351 432 352 
1205 363 440 439 
1206 411 454 453 
1207 418 661 480 
1208 443 444 442 
1209 837 852 541 
1210 662 814 804 
1211 759 814 797 
1212 52 122 51 
1213 58 133 57 
1214 173 811 706 
1215 337 349 303 
1216 349 405 350 
1217 427 435 370 
1218 435 785 370 
1219 381 382 380 
1220 409 452 438 
1221 418 480 416 
1222 764 831 424 
1223 483 754 698 
1224 222 817 220 
1225 248 738 247 
1226 321 700 290 
1227 296 780 340 
1228 316 317 315 
1229 317 343 342 
1230 358 400 357 
1231 361 408 360 
1232 385 386 374 
1233 375 778 777 
1234 450 567 565 
1235 532 845 475 
1236 480 861 774 
1237 527 626 625 
1238 561 681 680 
1239 628 630 629 
1240 649 650 648 
1241 66 118 65 
1242 160 163 162 
1243 192 736 193 
1244 245 246 244 
1245 277 309 279 
1246 336 471 470 
1247 351 352 345 
1248 360 718 717 
1249 361 431 408 
1250 515 640 400 
1251 457 458 431 
1252 436 559 552 
1253 447 550 549 
1254 449 828 571 
1255 507 508 454 
1256 495 541 501 
1257 506 576 574 
1258 845 846 655 
1259 2 120 1 
1260 159 160 158 
1261 169 767 705 
1262 706 835 173 
1263 174 176 175 
1264 226 812 224 
1265 533 774 256 
1266 293 780 296 
1267 334 675 317 
1268 325 345 344 
1269 386 535 374 
1270 666 667 383 
1271 391 437 390 
1272 402 646 645 
1273 431 547 408 
1274 411 507 454 
1275 461 536 420 
1276 485 754 483 
1277 852 853 541 
1278 172 755 173 
1279 190 643 183 
1280 193 793 203 
1281 198 747 212 
1282 201 769 215 
1283 210 229 218 
1284 712 794 266 
1285 285 677 330 
1286 330 366 364 
1287 334 785 675 
1288 364 734 394 
1289 369 411 410 
1290 429 751 537 
1291 465 466 464 
1292 469 814 662 
1293 538 539 497 
1294 681 685 683 
1295 701 753 751 
1296 747 756 748 
1297 164 167 166 
1298 168 171 170 
1299 340 781 306 
1300 694 727 313 
1301 370 785 334 
1302 351 468 432 
1303 543 801 434 
1304 557 558 435 
1305 476 763 694 
1306 783 804 477 
1307 486 841 487 
1308 492 796 777 
1309 547 724 723 
1310 633 634 581 
1311 819 834 766 
1312 230 234 214 
1313 221 222 220 
1314 314 315 234 
1315 268 762 237 
1316 344 538 497 
1317 433 434 352 
1318 371 429 428 
1319 455 631 373 
1320 378 758 757 
1321 531 551 514 
1322 722 806 534 
1323 93 105 92 
1324 287 714 322 
1325 368 369 329 
1326 376 420 353 
1327 354 669 413 
1328 437 460 390 
1329 397 398 396 
1330 487 488 422 
1331 448 746 428 
1332 436 664 559 
1333 441 741 495 
1334 572 746 448 
1335 740 796 492 
1336 494 811 530 
1337 706 811 494 
1338 520 772 771 
1339 559 583 552 
1340 610 611 608 
1341 824 838 792 
1342 176 177 175 
1343 383 716 185 
1344 206 308 204 
1345 255 285 284 
1346 264 764 291 
1347 325 344 324 
1348 373 775 329 
1349 635 731 355 
1350 408 718 360 
1351 379 402 381 
1352 510 661 418 
1353 522 557 435 
1354 558 785 435 
1355 503 799 440 
1356 457 459 458 
1357 681 683 682 
1358 165 819 162 
1359 194 195 192 
1360 315 805 234 
1361 303 711 268 
1362 711 762 268 
1363 302 336 301 
1364 322 361 360 
1365 417 509 418 
1366 482 800 421 
1367 804 814 462 
1368 465 761 637 
1369 732 740 492 
1370 225 752 227 
1371 264 291 268 
1372 310 731 279 
1373 338 764 424 
1374 415 711 350 
1375 354 413 367 
1376 471 472 470 
1377 820 832 499 
1378 710 817 639 
1379 660 768 737 
1380 800 834 705 
1381 96 123 95 
1382 194 787 658 
1383 207 726 210 
1384 725 726 207 
1385 432 433 352 
1386 413 456 414 
1387 642 776 459 
1388 745 749 478 
1389 537 753 692 
1390 168 169 166 
1391 183 341 181 
1392 216 794 384 
1393 274 283 276 
1394 283 332 289 
1395 323 324 288 
1396 293 296 295 
1397 338 424 391 
1398 434 801 352 
1399 393 825 407 
1400 459 514 458 
1401 541 853 501 
1402 538 655 539 
1403 4 134 3 
1404 200 756 747 
1405 235 794 216 
1406 224 812 278 
1407 280 818 304 
1408 658 722 313 
1409 535 713 374 
1410 384 842 736 
1411 808 823 392 
1412 552 587 451 
1413 464 821 493 
1414 565 566 477 
1415 549 864 542 
1416 676 785 558 
1417 635 776 731 
1418 10 128 9 
1419 757 760 260 
1420 420 669 353 
1421 403 635 355 
1422 369 410 373 
1423 401 743 512 
1424 824 850 500 
1425 519 581 580 
1426 558 786 676 
1427 684 686 682 
1428 789 807 790 
1429 330 677 366 
1430 387 782 342 
1431 389 498 387 
1432 426 792 389 
1433 411 813 507 
1434 426 824 792 
1435 169 835 767 
1436 738 778 247 
1437 740 803 278 
1438 721 840 326 
1439 343 392 388 
1440 367 770 403 
1441 410 455 373 
1442 388 823 404 
1443 783 828 449 
1444 499 832 481 
1445 499 849 843 
1446 658 806 722 
1447 162 819 161 
1448 436 552 451 
1449 443 827 444 
1450 495 836 541 
1451 627 844 821 
1452 733 812 226 
1453 264 268 237 
1454 692 753 243 
1455 253 820 693 
1456 284 795 254 
1457 291 337 303 
1458 312 346 300 
1459 349 446 405 
1460 631 775 373 
1461 375 796 733 
1462 534 806 784 
1463 696 855 854 
1464 820 843 831 
1465 251 738 248 
1466 282 818 280 
1467 283 816 333 
1468 639 817 803 
1469 177 716 175 
1470 255 702 286 
1471 438 825 393 
1472 767 841 486 
1473 237 762 238 
1474 309 310 279 
1475 355 731 310 
1476 342 805 315 
1477 496 500 401 
1478 501 827 443 
1479 725 845 532 
1480 539 846 842 
1481 827 861 661 
1482 694 763 727 
1483 236 267 265 
1484 807 832 253 
1485 326 840 379 
1486 348 851 721 
1487 777 796 375 
1488 436 451 399 
1489 456 518 414 
1490 639 803 529 
1491 566 829 828 
1492 255 286 285 
1493 309 763 376 
1494 404 506 505 
1495 466 821 464 
1496 490 841 706 
1497 536 749 745 
1498 205 207 206 
1499 313 727 217 
1500 279 731 318 
1501 285 330 284 
1502 482 834 800 
1503 506 823 577 
1504 380 758 378 
1505 382 804 462 
1506 741 836 495 
1507 751 753 537 
1508 577 823 808 
1509 854 855 651 
1510 22 127 21 
1511 209 845 725 
1512 253 832 820 
1513 462 814 759 
1514 266 794 235 
1515 477 804 382 
1516 207 210 208 
1517 210 211 208 
1518 277 279 267 
1519 398 481 396 
1520 671 848 510 
1521 821 844 493 
1522 170 835 169 
1523 254 790 218 
1524 278 817 222 
1525 333 816 741 
1526 402 840 647 
1527 862 864 471 
1528 655 846 539 
1529 273 816 274 
1530 343 388 387 
1531 536 745 420 
1532 481 832 789 
1533 487 841 490 
1534 308 798 204 
1535 512 548 515 
1536 236 277 267 
1537 480 833 416 
1538 499 843 820 
1539 737 768 213 
1540 156 159 158 
1541 188 194 192 
1542 287 288 266 
1543 520 771 770 
1544 540 858 728 
1545 221 807 253 
1546 345 847 344 
1547 348 854 851 
1548 478 802 641 
1549 818 838 496 
1550 431 707 547 
1551 173 835 170 
1552 425 859 302 
1553 496 824 500 
1554 274 816 283 
1555 323 325 324 
1556 379 840 402 
1557 493 844 766 
1558 736 842 793 
1559 243 663 231 
1560 291 764 338 
1561 309 353 310 
1562 513 830 405 
1563 838 839 792 
1564 8 135 7 
1565 250 852 252 
1566 262 837 273 
1567 801 847 345 
1568 447 542 434 
1569 556 825 438 
1570 843 849 540 
1571 263 797 692 
1572 353 669 354 
1573 366 734 364 
1574 322 323 288 
1575 748 810 423 
1576 165 834 819 
1577 793 846 209 
1578 836 837 541 
1579 254 795 790 
1580 415 833 744 
1581 831 843 424 
1582 497 815 712 
1583 219 807 221 
1584 405 830 406 
1585 416 833 415 
1586 721 851 840 
1587 496 838 824 
1588 847 857 704 
1589 359 802 478 
1590 794 815 384 
1591 543 859 857 
1592 801 857 847 
1593 399 849 398 
1594 826 855 407 
1595 712 815 794 
1596 398 849 499 
1597 820 831 693 
1598 273 837 836 
1599 336 862 471 
1600 424 843 540 
1601 849 858 540 
1602 739 839 282 
1603 252 837 262 
1604 256 852 250 
1605 696 854 348 
1606 256 853 852 
1607 282 838 818 
1608 851 854 649 
1609 647 851 649 
1610 575 850 505 
1611 704 857 425 
1612 543 857 801 
1613 840 851 647 
1614 774 853 256 
1615 858 860 728 
1616 399 858 849 
1617 842 846 793 
1618 282 839 838 
1619 451 860 858 
1620 587 860 451 
1621 728 860 545 
1622 407 855 696 
1623 649 854 651 
1624 543 862 859 
1625 451 858 399 
1626 157 632 154 
1627 501 861 827 
1628 853 861 501 
1629 156 158 157 
1630 302 859 336 
1631 826 856 855 
1632 473 863 570 
1633 863 864 549 
1634 473 864 863 
1635 855 856 651 
1636 774 861 853 
1637 859 862 336 
1638 471 864 473 
1639 587 865 860 
1640 860 865 545 
1641 156 157 154 
1642 606 866 615 
1643 618 866 611 
1644 608 866 606 
1645 155 156 154 
1646 611 866 608 
1647 152 155 154 
1648 602 867 600 
1649 153 622 150 
1650 152 154 153 
1651 152 153 150 
1652 605 867 602 
1653 151 152 150 
1654 619 867 605 
1655 155 868 156 
1656 149 623 592 
1657 148 151 150 
1658 156 868 159 
1659 149 592 146 
1660 148 150 149 
1661 603 877 876 
1662 474 870 769 
1663 781 875 412 
1664 623 869 592 
1665 241 883 881 
1666 872 874 599 
1667 720 870 474 
1668 372 873 409 
1669 598 872 599 
1670 636 879 179 
1671 147 594 148 
1672 148 149 146 
1673 599 874 601 
1674 603 878 604 
1675 147 871 594 
1676 269 876 292 
1677 340 872 781 
1678 409 873 525 
1679 412 875 621 
1680 621 875 595 
1681 720 884 870 
1682 340 874 872 
1683 292 877 780 
1684 780 874 340 
1685 595 875 598 
1686 298 880 878 
1687 612 885 617 
1688 607 880 609 
1689 298 876 269 
1690 241 881 242 
1691 870 883 769 
1692 876 878 603 
1693 881 882 245 
1694 601 877 603 
1695 613 883 870 
1696 182 879 311 
1697 147 148 146 
1698 604 878 607 
1699 613 884 610 
1700 780 877 874 
1701 874 877 601 
1702 870 884 613 
1703 259 882 298 
1704 614 882 881 
1705 245 882 259 
1706 617 879 636 
1707 609 880 614 
1708 298 878 876 
1709 242 881 245 
1710 769 883 241 
1711 298 882 880 
1712 610 884 612 
1713 879 885 311 
1714 617 885 879 
1715 311 885 720 
1716 880 882 614 
1717 144 147 146 
1718 144 146 145 
1719 144 145 142 
1720 143 593 144 
1721 143 886 593 
1722 143 144 142 
1723 444 887 442 
1724 887 888 503 
1725 442 887 503 
1726 140 143 142 
1727 141 588 554 
1728 142 590 141 
1729 141 554 139 
1730 140 142 141 
1731 138 589 140 
1732 140 141 139 
1733 138 140 139 
1734 94 975 652 
1735 729 889 564 
1736 652 984 94 
1737 580 890 518 
1738 520 890 772 
1739 138 139 119 
1740 137 553 138 
1741 554 893 139 
1742 584 889 729 
1743 629 962 922 
1744 119 893 83 
1745 83 893 82 
1746 558 891 786 
1747 572 892 746 
1748 518 890 520 
1749 508 898 591 
1750 560 895 561 
1751 681 895 685 
1752 895 964 685 
1753 822 896 507 
1754 503 899 799 
1755 134 908 892 
1756 902 978 691 
1757 50 968 583 
1758 62 894 61 
1759 110 894 62 
1760 555 982 556 
1761 546 923 504 
1762 557 891 558 
1763 746 892 522 
1764 585 940 117 
1765 634 926 581 
1766 899 945 799 
1767 139 893 119 
1768 896 897 508 
1769 583 989 50 
1770 131 933 904 
1771 673 959 118 
1772 121 964 895 
1773 551 930 514 
1774 561 895 681 
1775 809 913 128 
1776 898 953 591 
1777 743 931 512 
1778 724 947 937 
1779 897 898 508 
1780 910 973 946 
1781 137 138 119 
1782 910 946 136 
1783 507 896 508 
1784 888 899 503 
1785 688 960 822 
1786 825 933 826 
1787 653 938 123 
1788 107 945 899 
1789 646 938 653 
1790 652 938 648 
1791 515 939 634 
1792 887 942 888 
1793 673 942 674 
1794 516 945 562 
1795 45 902 44 
1796 48 903 47 
1797 89 904 88 
1798 37 917 111 
1799 5 908 4 
1800 131 904 89 
1801 125 905 77 
1802 115 903 48 
1803 55 910 54 
1804 4 908 134 
1805 104 908 5 
1806 7 907 6 
1807 52 911 122 
1808 38 917 37 
1809 26 922 25 
1810 54 910 136 
1811 25 922 116 
1812 28 914 132 
1813 135 907 7 
1814 88 919 87 
1815 53 911 52 
1816 92 912 91 
1817 103 910 55 
1818 77 905 76 
1819 30 916 29 
1820 44 901 43 
1821 105 912 92 
1822 43 901 106 
1823 46 915 124 
1824 39 918 38 
1825 9 913 8 
1826 6 907 104 
1827 12 906 11 
1828 29 914 28 
1829 113 906 12 
1830 102 916 30 
1831 136 911 53 
1832 47 915 46 
1833 75 920 112 
1834 91 909 90 
1835 87 919 109 
1836 129 918 39 
1837 84 137 119 
1838 128 913 9 
1839 90 909 131 
1840 124 902 45 
1841 76 920 75 
1842 8 913 135 
1843 85 137 84 
1844 27 921 26 
1845 132 921 27 
1846 865 946 545 
1847 723 941 546 
1848 16 924 130 
1849 101 953 898 
1850 41 925 40 
1851 504 923 709 
1852 699 935 521 
1853 17 924 16 
1854 588 953 554 
1855 891 907 135 
1856 586 961 555 
1857 683 954 684 
1858 40 925 129 
1859 15 927 14 
1860 567 957 565 
1861 581 926 582 
1862 108 928 18 
1863 523 935 915 
1864 81 929 101 
1865 650 974 105 
1866 130 927 15 
1867 554 929 893 
1868 82 929 81 
1869 128 988 809 
1870 18 928 17 
1871 549 971 863 
1872 921 977 629 
1873 651 974 650 
1874 109 934 86 
1875 573 966 894 
1876 522 956 557 
1877 708 991 697 
1878 514 930 517 
1879 809 988 577 
1880 105 984 650 
1881 33 937 32 
1882 826 981 856 
1883 137 934 553 
1884 569 936 691 
1885 117 940 59 
1886 58 940 133 
1887 891 980 786 
1888 106 943 42 
1889 650 984 652 
1890 44 902 901 
1891 38 918 917 
1892 921 922 26 
1893 91 912 909 
1894 904 919 88 
1895 903 915 47 
1896 905 920 76 
1897 29 916 914 
1898 32 947 31 
1899 10 948 128 
1900 23 949 22 
1901 568 936 569 
1902 133 950 57 
1903 56 950 103 
1904 707 969 547 
1905 893 929 82 
1906 583 994 552 
1907 512 931 548 
1908 34 951 126 
1909 74 952 73 
1910 67 955 66 
1911 568 993 936 
1912 924 931 130 
1913 889 950 133 
1914 923 951 709 
1915 548 931 924 
1916 914 930 132 
1917 743 944 931 
1918 70 958 69 
1919 118 959 65 
1920 17 928 924 
1921 924 928 548 
1922 135 980 891 
1923 109 961 934 
1924 100 963 99 
1925 73 964 72 
1926 19 965 108 
1927 110 985 672 
1928 60 966 117 
1929 1 967 100 
1930 556 933 825 
1931 51 968 50 
1932 111 970 36 
1933 71 972 70 
1934 521 935 523 
1935 95 975 94 
1936 116 962 771 
1937 551 977 930 
1938 579 944 743 
1939 86 934 85 
1940 699 978 935 
1941 101 979 80 
1942 108 939 928 
1943 94 984 93 
1944 63 985 110 
1945 24 986 23 
1946 114 992 98 
1947 127 990 21 
1948 50 989 49 
1949 576 948 906 
1950 951 970 709 
1951 945 958 562 
1952 85 934 137 
1953 936 993 106 
1954 908 956 892 
1955 584 973 103 
1956 41 943 925 
1957 890 949 772 
1958 126 937 33 
1959 724 941 723 
1960 928 939 548 
1961 925 943 570 
1962 630 962 629 
1963 648 938 646 
1964 548 939 515 
1965 59 940 58 
1966 707 987 969 
1967 906 948 11 
1968 920 954 112 
1969 674 942 887 
1970 126 951 923 
1971 897 979 898 
1972 42 943 41 
1973 888 932 899 
1974 127 949 890 
1975 934 961 553 
1976 799 945 516 
1977 898 979 101 
1978 545 946 544 
1979 771 962 630 
1980 31 947 102 
1981 11 948 10 
1982 22 949 127 
1983 108 965 926 
1984 894 966 61 
1985 111 991 970 
1986 57 950 56 
1987 553 961 586 
1988 828 983 571 
1989 961 982 555 
1990 35 951 34 
1991 112 952 74 
1992 517 987 707 
1993 591 953 588 
1994 652 975 938 
1995 684 954 688 
1996 915 935 124 
1997 932 955 67 
1998 66 955 118 
1999 901 936 106 
2000 654 957 567 
2001 931 944 130 
2002 930 977 132 
2003 566 976 829 
2004 565 976 566 
2005 926 965 582 
2006 968 994 583 
2007 130 944 927 
2008 946 973 544 
2009 892 956 522 
2010 935 978 124 
2011 629 977 551 
2012 691 978 699 
2013 69 958 107 
2014 65 959 64 
2015 822 960 896 
2016 912 974 856 
2017 888 955 932 
2018 933 981 826 
2019 99 963 114 
2020 918 971 550 
2021 72 964 121 
2022 965 990 582 
2023 129 971 918 
2024 547 969 724 
2025 829 983 828 
2026 20 965 19 
2027 61 966 60 
2028 957 992 114 
2029 120 967 1 
2030 97 992 654 
2031 122 968 51 
2032 896 960 125 
2033 36 970 35 
2034 550 971 549 
2035 104 956 908 
2036 121 972 71 
2037 937 941 724 
2038 544 973 584 
2039 125 960 905 
2040 856 974 651 
2041 126 941 937 
2042 107 958 945 
2043 123 975 95 
2044 786 980 809 
2045 35 970 951 
2046 587 994 122 
2047 80 979 79 
2048 93 984 105 
2049 922 962 116 
2050 64 985 63 
2051 116 986 24 
2052 969 987 102 
2053 970 991 709 
2054 959 985 64 
2055 577 988 576 
2056 552 994 587 
2057 49 989 115 
2058 570 993 568 
2059 21 990 20 
2060 709 991 708 
2061 98 992 97 
2062 103 973 910 
2063 809 980 913 
2064 948 988 128 
2065 938 975 123 
2066 105 974 912 
2067 20 990 965 
2068 131 981 933 
2069 132 977 921 
2070 124 978 902 
2071 913 980 135 
2072 909 981 131 
2073 919 982 109 
2074 829 976 963 
2075 724 969 947 
2076 106 993 943 
2077 102 987 916 
2078 947 969 102 
2079 109 982 961 
2080 967 983 829 
2081 576 988 948 
2082 654 992 957 
2083 963 976 114 
2084 943 993 570 
2085 120 983 967 
2086 122 994 968 
$EndElements
